<svg width="376" height="157" viewBox="0 0 376 157" fill="none" xmlns="http://www.w3.org/2000/svg">
<path d="M3.35127 8.07028C2.83904 7.93856 2.45486 7.71172 2.19875 7.38974C1.94263 7.06777 1.81457 6.67993 1.81457 6.22624C1.81457 5.6262 2.03776 5.13957 2.48413 4.76638C2.93782 4.39318 3.56348 4.20658 4.3611 4.20658C5.15872 4.20658 5.78072 4.39318 6.2271 4.76638C6.68079 5.13957 6.90763 5.6262 6.90763 6.22624C6.90763 6.67262 6.77958 7.06045 6.52346 7.38974C6.26734 7.71172 5.88317 7.93856 5.37093 8.07028C5.91976 8.18736 6.34784 8.42153 6.65518 8.77277C6.96983 9.12402 7.12716 9.56308 7.12716 10.0899C7.12716 10.7851 6.87836 11.3376 6.38077 11.7474C5.89048 12.1499 5.21726 12.3511 4.3611 12.3511C3.50494 12.3511 2.83172 12.1499 2.34144 11.7474C1.85116 11.3376 1.60602 10.7851 1.60602 10.0899C1.60602 9.56308 1.75969 9.12402 2.06703 8.77277C2.38169 8.41421 2.80977 8.18005 3.35127 8.07028ZM6.42467 6.25917C6.42467 5.73962 6.23807 5.33715 5.86487 5.05176C5.49167 4.76638 4.99042 4.62368 4.3611 4.62368C3.73179 4.62368 3.23053 4.76638 2.85733 5.05176C2.48413 5.32983 2.29753 5.73596 2.29753 6.27015C2.29753 6.77506 2.48413 7.17387 2.85733 7.46658C3.23053 7.75197 3.73179 7.89466 4.3611 7.89466C4.99042 7.89466 5.49167 7.74831 5.86487 7.4556C6.23807 7.1629 6.42467 6.76409 6.42467 6.25917ZM4.3611 8.28981C3.6952 8.28981 3.14638 8.43616 2.71464 8.72887C2.29022 9.02157 2.078 9.47161 2.078 10.079C2.078 10.6571 2.2829 11.1108 2.69268 11.44C3.10979 11.7693 3.66593 11.934 4.3611 11.934C5.05628 11.934 5.60876 11.7693 6.01854 11.44C6.42833 11.1108 6.63322 10.6571 6.63322 10.079C6.63322 9.47892 6.42101 9.03255 5.99659 8.73984C5.57217 8.43982 5.02701 8.28981 4.3611 8.28981ZM8.47958 8.15809C8.47958 6.89215 8.66252 5.9189 9.0284 5.23836C9.39428 4.55051 10.0675 4.20658 11.0481 4.20658C12.0213 4.20658 12.6909 4.55051 13.0568 5.23836C13.4226 5.9189 13.6056 6.89215 13.6056 8.15809C13.6056 9.43868 13.4226 10.4266 13.0568 11.1217C12.6909 11.8096 12.0213 12.1535 11.0481 12.1535C10.0675 12.1535 9.39428 11.8096 9.0284 11.1217C8.66252 10.4266 8.47958 9.43868 8.47958 8.15809ZM13.1226 8.15809C13.1226 7.42633 13.0677 6.80799 12.958 6.30308C12.8555 5.79816 12.6506 5.39935 12.3433 5.10665C12.0433 4.80662 11.6115 4.65661 11.0481 4.65661C10.4846 4.65661 10.0492 4.80662 9.74187 5.10665C9.44185 5.39935 9.23695 5.79816 9.12719 6.30308C9.02474 6.80799 8.97352 7.42633 8.97352 8.15809C8.97352 8.90449 9.02474 9.53381 9.12719 10.046C9.23695 10.551 9.44185 10.9534 9.74187 11.2534C10.0492 11.5535 10.4846 11.7035 11.0481 11.7035C11.6115 11.7035 12.0433 11.5535 12.3433 11.2534C12.6506 10.9534 12.8555 10.551 12.958 10.046C13.0677 9.53381 13.1226 8.90449 13.1226 8.15809Z" fill="black"/>
<path d="M6.31619 42.2592C6.2357 41.7323 6.04178 41.3262 5.73444 41.0408C5.4271 40.7481 5.00634 40.6017 4.47215 40.6017C3.71844 40.6017 3.14035 40.8798 2.73788 41.4359C2.34273 41.9921 2.14515 42.8921 2.14515 44.1361L2.15613 44.5642C2.27321 44.0593 2.55494 43.6605 3.00131 43.3678C3.44769 43.0678 3.96724 42.9178 4.55996 42.9178C5.35027 42.9178 5.96861 43.1556 6.41498 43.6312C6.86136 44.1069 7.08454 44.7581 7.08454 45.585C7.08454 46.0534 6.99673 46.4814 6.82111 46.8693C6.64549 47.2571 6.36742 47.5681 5.9869 47.8023C5.60638 48.0364 5.13074 48.1535 4.55996 48.1535C3.46232 48.1535 2.71227 47.8096 2.3098 47.1217C1.90733 46.4266 1.70609 45.4716 1.70609 44.2569C1.70609 42.947 1.92196 41.9409 2.3537 41.2384C2.79276 40.5359 3.49891 40.1846 4.47215 40.1846C5.15269 40.1846 5.68688 40.3749 6.07471 40.7554C6.46986 41.1286 6.70769 41.6299 6.78818 42.2592H6.31619ZM4.48313 43.3458C4.10993 43.3458 3.75137 43.4227 3.40744 43.5763C3.06351 43.73 2.78178 43.9642 2.56225 44.2788C2.35004 44.5862 2.24394 44.963 2.24394 45.4094C2.24394 45.8192 2.32443 46.2034 2.48542 46.5619C2.65372 46.9132 2.90984 47.1986 3.25377 47.4181C3.5977 47.6303 4.02578 47.7364 4.53801 47.7364C5.16733 47.7364 5.66858 47.5462 6.04178 47.1656C6.41498 46.7851 6.60158 46.2619 6.60158 45.596C6.60158 44.8789 6.41498 44.3264 6.04178 43.9386C5.66858 43.5434 5.14903 43.3458 4.48313 43.3458ZM8.47958 44.1581C8.47958 42.8921 8.66252 41.9189 9.0284 41.2384C9.39428 40.5505 10.0675 40.2066 11.0481 40.2066C12.0213 40.2066 12.6909 40.5505 13.0568 41.2384C13.4226 41.9189 13.6056 42.8921 13.6056 44.1581C13.6056 45.4387 13.4226 46.4266 13.0568 47.1217C12.6909 47.8096 12.0213 48.1535 11.0481 48.1535C10.0675 48.1535 9.39428 47.8096 9.0284 47.1217C8.66252 46.4266 8.47958 45.4387 8.47958 44.1581ZM13.1226 44.1581C13.1226 43.4263 13.0677 42.808 12.958 42.3031C12.8555 41.7982 12.6506 41.3994 12.3433 41.1066C12.0433 40.8066 11.6115 40.6566 11.0481 40.6566C10.4846 40.6566 10.0492 40.8066 9.74187 41.1066C9.44185 41.3994 9.23695 41.7982 9.12719 42.3031C9.02474 42.808 8.97352 43.4263 8.97352 44.1581C8.97352 44.9045 9.02474 45.5338 9.12719 46.046C9.23695 46.551 9.44185 46.9534 9.74187 47.2534C10.0492 47.5535 10.4846 47.7035 11.0481 47.7035C11.6115 47.7035 12.0433 47.5535 12.3433 47.2534C12.6506 46.9534 12.8555 46.551 12.958 46.046C13.0677 45.5338 13.1226 44.9045 13.1226 44.1581Z" fill="black"/>
<path d="M1.53398 82.1229V81.7387L5.71601 76.3273H6.2758V81.6948H7.52712V82.1229H6.2758V84.0986H5.79284V82.1229H1.53398ZM5.80382 76.92L2.11574 81.6948H5.80382V76.92ZM8.47958 80.1581C8.47958 78.8921 8.66252 77.9189 9.0284 77.2384C9.39428 76.5505 10.0675 76.2066 11.0481 76.2066C12.0213 76.2066 12.6909 76.5505 13.0568 77.2384C13.4226 77.9189 13.6056 78.8921 13.6056 80.1581C13.6056 81.4387 13.4226 82.4266 13.0568 83.1217C12.6909 83.8096 12.0213 84.1535 11.0481 84.1535C10.0675 84.1535 9.39428 83.8096 9.0284 83.1217C8.66252 82.4266 8.47958 81.4387 8.47958 80.1581ZM13.1226 80.1581C13.1226 79.4263 13.0677 78.808 12.958 78.3031C12.8555 77.7982 12.6506 77.3994 12.3433 77.1066C12.0433 76.8066 11.6115 76.6566 11.0481 76.6566C10.4846 76.6566 10.0492 76.8066 9.74187 77.1066C9.44185 77.3994 9.23695 77.7982 9.12719 78.3031C9.02474 78.808 8.97352 79.4263 8.97352 80.1581C8.97352 80.9045 9.02474 81.5338 9.12719 82.046C9.23695 82.551 9.44185 82.9534 9.74187 83.2534C10.0492 83.5535 10.4846 83.7035 11.0481 83.7035C11.6115 83.7035 12.0433 83.5535 12.3433 83.2534C12.6506 82.9534 12.8555 82.551 12.958 82.046C13.0677 81.5338 13.1226 80.9045 13.1226 80.1581Z" fill="black"/>
<path d="M1.53298 119.736C2.9087 118.785 3.9917 117.867 4.78201 116.981C5.57963 116.096 5.97844 115.247 5.97844 114.435C5.97844 113.901 5.83574 113.465 5.55036 113.129C5.27229 112.792 4.81494 112.624 4.1783 112.624C3.54167 112.624 3.05505 112.818 2.71844 113.205C2.38183 113.593 2.19157 114.106 2.14766 114.742H1.6647C1.71592 113.937 1.96472 113.312 2.4111 112.865C2.85747 112.419 3.44654 112.196 4.1783 112.196C4.84421 112.196 5.38937 112.382 5.81379 112.755C6.24553 113.129 6.4614 113.685 6.4614 114.424C6.4614 115.339 6.04064 116.261 5.19911 117.19C4.3649 118.119 3.40995 118.939 2.33426 119.649H6.71386V120.066H1.53298V119.736ZM7.97958 116.158C7.97958 114.892 8.16252 113.919 8.5284 113.238C8.89428 112.551 9.5675 112.207 10.5481 112.207C11.5213 112.207 12.1909 112.551 12.5568 113.238C12.9226 113.919 13.1056 114.892 13.1056 116.158C13.1056 117.439 12.9226 118.427 12.5568 119.122C12.1909 119.81 11.5213 120.154 10.5481 120.154C9.5675 120.154 8.89428 119.81 8.5284 119.122C8.16252 118.427 7.97958 117.439 7.97958 116.158ZM12.6226 116.158C12.6226 115.426 12.5677 114.808 12.458 114.303C12.3555 113.798 12.1506 113.399 11.8433 113.107C11.5433 112.807 11.1115 112.657 10.5481 112.657C9.98461 112.657 9.54921 112.807 9.24187 113.107C8.94185 113.399 8.73695 113.798 8.62719 114.303C8.52474 114.808 8.47352 115.426 8.47352 116.158C8.47352 116.904 8.52474 117.534 8.62719 118.046C8.73695 118.551 8.94185 118.953 9.24187 119.253C9.54921 119.553 9.98461 119.703 10.5481 119.703C11.1115 119.703 11.5433 119.553 11.8433 119.253C12.1506 118.953 12.3555 118.551 12.458 118.046C12.5677 117.534 12.6226 116.904 12.6226 116.158Z" fill="black"/>
<path d="M63.8976 96.5221L59.3472 124.099H375.347V21.7751C365.741 21.7751 356.134 60.9628 346.528 73.2997C336.922 84.9109 327.821 68.9455 318.214 73.2997C308.608 76.9282 299.002 100.151 289.395 84.9109C279.789 68.9455 270.182 14.5181 260.576 14.5181C250.97 14.5181 241.363 68.9455 231.757 80.5567C222.15 92.8936 212.544 60.9628 202.938 60.9628C193.331 60.9628 183.725 92.8936 174.118 92.8936C164.512 92.8936 154.906 60.9628 145.805 68.9455C136.198 76.9282 126.592 124.099 116.986 112.488C107.379 100.151 97.7728 29.7578 88.1664 21.7751C78.56 14.5181 68.9536 68.9455 63.8976 96.5221Z" fill="url(#paint0_linear_401_8282)"/>
<path d="M59.3472 124.099L63.8976 96.5221C68.9536 68.9455 78.56 14.5181 88.1664 21.7751C97.7728 29.7578 107.379 100.151 116.986 112.488C126.592 124.099 136.198 76.9282 145.805 68.9455C154.906 60.9628 164.512 92.8936 174.118 92.8936C183.725 92.8936 193.331 60.9628 202.938 60.9628C212.544 60.9628 222.15 92.8936 231.757 80.5567C241.363 68.9455 250.97 14.5181 260.576 14.5181C270.182 14.5181 279.789 68.9455 289.395 84.9109C299.002 100.151 308.608 76.9282 318.214 73.2997C327.821 68.9455 336.922 84.9109 346.528 73.2997C356.134 60.9628 365.741 21.7751 375.347 21.7751" stroke="#48CFCB" stroke-width="1.52903"/>
<path d="M61.0417 150.397C61.7442 149.79 62.2967 149.292 62.6992 148.904C63.109 148.509 63.4492 148.1 63.72 147.675C63.9907 147.251 64.1261 146.826 64.1261 146.402C64.1261 145.963 64.02 145.619 63.8078 145.37C63.6029 145.121 63.2773 144.997 62.8309 144.997C62.3991 144.997 62.0625 145.136 61.8211 145.414C61.5869 145.685 61.4625 146.051 61.4479 146.512H60.2404C60.2624 145.677 60.5112 145.041 60.9868 144.602C61.4698 144.155 62.0808 143.932 62.8199 143.932C63.6175 143.932 64.2395 144.152 64.6859 144.591C65.1396 145.03 65.3664 145.615 65.3664 146.347C65.3664 146.874 65.2311 147.382 64.9603 147.873C64.6969 148.356 64.3786 148.791 64.0054 149.179C63.6395 149.559 63.1712 150.002 62.6004 150.507L62.1064 150.946H65.586V151.989H60.2514V151.078L61.0417 150.397ZM66.6852 147.993C66.6852 146.727 66.8975 145.74 67.3219 145.03C67.7536 144.313 68.4927 143.954 69.5391 143.954C70.5855 143.954 71.321 144.313 71.7454 145.03C72.1771 145.74 72.393 146.727 72.393 147.993C72.393 149.274 72.1771 150.277 71.7454 151.001C71.321 151.718 70.5855 152.077 69.5391 152.077C68.4927 152.077 67.7536 151.718 67.3219 151.001C66.8975 150.277 66.6852 149.274 66.6852 147.993ZM71.1636 147.993C71.1636 147.401 71.1234 146.899 71.0429 146.49C70.9697 146.08 70.816 145.747 70.5819 145.491C70.3477 145.227 70.0001 145.096 69.5391 145.096C69.0781 145.096 68.7305 145.227 68.4964 145.491C68.2622 145.747 68.1049 146.08 68.0244 146.49C67.9512 146.899 67.9146 147.401 67.9146 147.993C67.9146 148.608 67.9512 149.124 68.0244 149.541C68.0975 149.958 68.2512 150.295 68.4854 150.551C68.7269 150.807 69.0781 150.935 69.5391 150.935C70.0001 150.935 70.3477 150.807 70.5819 150.551C70.8234 150.295 70.9807 149.958 71.0539 149.541C71.127 149.124 71.1636 148.608 71.1636 147.993ZM73.5524 145.238V144.097H75.8355V152.099H74.5732V145.238H73.5524ZM77.4008 150.43V149.486L81.0889 144.196H82.6036V149.344H83.6245V150.43H82.6036V152.099H81.3743V150.43H77.4008ZM81.4292 145.469L78.8387 149.344H81.4292V145.469Z" fill="black" fill-opacity="0.54"/>
<path d="M118.074 150.397C118.776 149.79 119.329 149.292 119.731 148.904C120.141 148.509 120.481 148.1 120.752 147.675C121.023 147.251 121.158 146.826 121.158 146.402C121.158 145.963 121.052 145.619 120.84 145.37C120.635 145.121 120.309 144.997 119.863 144.997C119.431 144.997 119.095 145.136 118.853 145.414C118.619 145.685 118.495 146.051 118.48 146.512H117.273C117.295 145.677 117.543 145.041 118.019 144.602C118.502 144.155 119.113 143.932 119.852 143.932C120.65 143.932 121.272 144.152 121.718 144.591C122.172 145.03 122.399 145.615 122.399 146.347C122.399 146.874 122.263 147.382 121.992 147.873C121.729 148.356 121.411 148.791 121.038 149.179C120.672 149.559 120.203 150.002 119.633 150.507L119.139 150.946H122.618V151.989H117.284V151.078L118.074 150.397ZM123.717 147.993C123.717 146.727 123.93 145.74 124.354 145.03C124.786 144.313 125.525 143.954 126.571 143.954C127.618 143.954 128.353 144.313 128.778 145.03C129.209 145.74 129.425 146.727 129.425 147.993C129.425 149.274 129.209 150.277 128.778 151.001C128.353 151.718 127.618 152.077 126.571 152.077C125.525 152.077 124.786 151.718 124.354 151.001C123.93 150.277 123.717 149.274 123.717 147.993ZM128.196 147.993C128.196 147.401 128.156 146.899 128.075 146.49C128.002 146.08 127.848 145.747 127.614 145.491C127.38 145.227 127.032 145.096 126.571 145.096C126.11 145.096 125.763 145.227 125.529 145.491C125.294 145.747 125.137 146.08 125.057 146.49C124.983 146.899 124.947 147.401 124.947 147.993C124.947 148.608 124.983 149.124 125.057 149.541C125.13 149.958 125.283 150.295 125.518 150.551C125.759 150.807 126.11 150.935 126.571 150.935C127.032 150.935 127.38 150.807 127.614 150.551C127.856 150.295 128.013 149.958 128.086 149.541C128.159 149.124 128.196 148.608 128.196 147.993ZM130.585 145.238V144.097H132.868V152.099H131.605V145.238H130.585ZM138.889 145.952C138.809 145.615 138.663 145.363 138.45 145.194C138.238 145.026 137.942 144.942 137.561 144.942C136.983 144.942 136.551 145.165 136.266 145.612C135.981 146.051 135.831 146.782 135.816 147.807C136.006 147.485 136.284 147.236 136.65 147.06C137.016 146.885 137.411 146.797 137.836 146.797C138.319 146.797 138.743 146.903 139.109 147.115C139.482 147.32 139.771 147.62 139.976 148.015C140.188 148.411 140.294 148.883 140.294 149.431C140.294 149.944 140.192 150.401 139.987 150.803C139.789 151.206 139.493 151.524 139.098 151.758C138.703 151.985 138.227 152.099 137.671 152.099C136.917 152.099 136.325 151.934 135.893 151.605C135.468 151.268 135.168 150.796 134.993 150.189C134.824 149.581 134.74 148.824 134.74 147.917C134.74 145.238 135.684 143.899 137.572 143.899C138.304 143.899 138.878 144.097 139.296 144.492C139.72 144.887 139.969 145.374 140.042 145.952H138.889ZM137.561 147.851C137.115 147.851 136.734 147.986 136.42 148.257C136.112 148.52 135.959 148.904 135.959 149.409C135.959 149.914 136.101 150.317 136.387 150.617C136.679 150.91 137.086 151.056 137.605 151.056C138.066 151.056 138.428 150.913 138.692 150.628C138.963 150.342 139.098 149.962 139.098 149.486C139.098 148.989 138.966 148.593 138.703 148.301C138.447 148.001 138.066 147.851 137.561 147.851Z" fill="black" fill-opacity="0.54"/>
<path d="M175.095 150.397C175.798 149.79 176.35 149.292 176.753 148.904C177.163 148.509 177.503 148.1 177.774 147.675C178.044 147.251 178.18 146.826 178.18 146.402C178.18 145.963 178.074 145.619 177.861 145.37C177.656 145.121 177.331 144.997 176.884 144.997C176.453 144.997 176.116 145.136 175.875 145.414C175.64 145.685 175.516 146.051 175.501 146.512H174.294C174.316 145.677 174.565 145.041 175.04 144.602C175.523 144.155 176.134 143.932 176.874 143.932C177.671 143.932 178.293 144.152 178.739 144.591C179.193 145.03 179.42 145.615 179.42 146.347C179.42 146.874 179.285 147.382 179.014 147.873C178.75 148.356 178.432 148.791 178.059 149.179C177.693 149.559 177.225 150.002 176.654 150.507L176.16 150.946H179.64V151.989H174.305V151.078L175.095 150.397ZM180.739 147.993C180.739 146.727 180.951 145.74 181.375 145.03C181.807 144.313 182.546 143.954 183.593 143.954C184.639 143.954 185.375 144.313 185.799 145.03C186.231 145.74 186.447 146.727 186.447 147.993C186.447 149.274 186.231 150.277 185.799 151.001C185.375 151.718 184.639 152.077 183.593 152.077C182.546 152.077 181.807 151.718 181.375 151.001C180.951 150.277 180.739 149.274 180.739 147.993ZM185.217 147.993C185.217 147.401 185.177 146.899 185.096 146.49C185.023 146.08 184.87 145.747 184.635 145.491C184.401 145.227 184.054 145.096 183.593 145.096C183.132 145.096 182.784 145.227 182.55 145.491C182.316 145.747 182.158 146.08 182.078 146.49C182.005 146.899 181.968 147.401 181.968 147.993C181.968 148.608 182.005 149.124 182.078 149.541C182.151 149.958 182.305 150.295 182.539 150.551C182.78 150.807 183.132 150.935 183.593 150.935C184.054 150.935 184.401 150.807 184.635 150.551C184.877 150.295 185.034 149.958 185.107 149.541C185.181 149.124 185.217 148.608 185.217 147.993ZM187.606 145.238V144.097H189.889V152.099H188.627V145.238H187.606ZM192.958 147.917C192.197 147.536 191.817 146.936 191.817 146.116C191.817 145.721 191.915 145.359 192.113 145.03C192.311 144.701 192.607 144.441 193.002 144.25C193.397 144.053 193.88 143.954 194.451 143.954C195.014 143.954 195.494 144.053 195.889 144.25C196.291 144.441 196.591 144.701 196.789 145.03C196.987 145.359 197.085 145.721 197.085 146.116C197.085 146.526 196.979 146.888 196.767 147.203C196.562 147.51 196.288 147.748 195.944 147.917C196.361 148.07 196.69 148.323 196.932 148.674C197.173 149.018 197.294 149.424 197.294 149.892C197.294 150.368 197.173 150.789 196.932 151.155C196.69 151.521 196.354 151.802 195.922 152C195.49 152.197 195 152.296 194.451 152.296C193.902 152.296 193.412 152.197 192.98 152C192.556 151.802 192.223 151.521 191.981 151.155C191.74 150.789 191.619 150.368 191.619 149.892C191.619 149.417 191.74 149.007 191.981 148.663C192.223 148.319 192.548 148.07 192.958 147.917ZM195.889 146.27C195.889 145.86 195.761 145.546 195.505 145.326C195.249 145.107 194.897 144.997 194.451 144.997C194.012 144.997 193.664 145.107 193.408 145.326C193.152 145.546 193.024 145.864 193.024 146.281C193.024 146.647 193.156 146.947 193.419 147.181C193.69 147.408 194.034 147.521 194.451 147.521C194.868 147.521 195.212 147.404 195.483 147.17C195.754 146.936 195.889 146.636 195.889 146.27ZM194.451 148.465C193.968 148.465 193.573 148.586 193.266 148.828C192.965 149.062 192.815 149.402 192.815 149.848C192.815 150.266 192.962 150.606 193.255 150.869C193.547 151.125 193.946 151.253 194.451 151.253C194.949 151.253 195.34 151.122 195.625 150.858C195.918 150.595 196.065 150.258 196.065 149.848C196.065 149.409 195.914 149.069 195.614 148.828C195.322 148.586 194.934 148.465 194.451 148.465Z" fill="black" fill-opacity="0.54"/>
<path d="M231.83 150.397C232.533 149.79 233.085 149.292 233.488 148.904C233.898 148.509 234.238 148.1 234.509 147.675C234.779 147.251 234.915 146.826 234.915 146.402C234.915 145.963 234.809 145.619 234.597 145.37C234.392 145.121 234.066 144.997 233.62 144.997C233.188 144.997 232.851 145.136 232.61 145.414C232.376 145.685 232.251 146.051 232.237 146.512H231.029C231.051 145.677 231.3 145.041 231.776 144.602C232.259 144.155 232.87 143.932 233.609 143.932C234.406 143.932 235.028 144.152 235.475 144.591C235.928 145.03 236.155 145.615 236.155 146.347C236.155 146.874 236.02 147.382 235.749 147.873C235.486 148.356 235.167 148.791 234.794 149.179C234.428 149.559 233.96 150.002 233.389 150.507L232.895 150.946H236.375V151.989H231.04V151.078L231.83 150.397ZM237.474 147.993C237.474 146.727 237.686 145.74 238.111 145.03C238.542 144.313 239.281 143.954 240.328 143.954C241.374 143.954 242.11 144.313 242.534 145.03C242.966 145.74 243.182 146.727 243.182 147.993C243.182 149.274 242.966 150.277 242.534 151.001C242.11 151.718 241.374 152.077 240.328 152.077C239.281 152.077 238.542 151.718 238.111 151.001C237.686 150.277 237.474 149.274 237.474 147.993ZM241.952 147.993C241.952 147.401 241.912 146.899 241.832 146.49C241.758 146.08 241.605 145.747 241.371 145.491C241.136 145.227 240.789 145.096 240.328 145.096C239.867 145.096 239.519 145.227 239.285 145.491C239.051 145.747 238.894 146.08 238.813 146.49C238.74 146.899 238.703 147.401 238.703 147.993C238.703 148.608 238.74 149.124 238.813 149.541C238.886 149.958 239.04 150.295 239.274 150.551C239.516 150.807 239.867 150.935 240.328 150.935C240.789 150.935 241.136 150.807 241.371 150.551C241.612 150.295 241.769 149.958 241.843 149.541C241.916 149.124 241.952 148.608 241.952 147.993ZM245.197 150.397C245.9 149.79 246.452 149.292 246.855 148.904C247.264 148.509 247.605 148.1 247.876 147.675C248.146 147.251 248.282 146.826 248.282 146.402C248.282 145.963 248.176 145.619 247.963 145.37C247.758 145.121 247.433 144.997 246.986 144.997C246.555 144.997 246.218 145.136 245.977 145.414C245.742 145.685 245.618 146.051 245.603 146.512H244.396C244.418 145.677 244.667 145.041 245.142 144.602C245.625 144.155 246.236 143.932 246.975 143.932C247.773 143.932 248.395 144.152 248.841 144.591C249.295 145.03 249.522 145.615 249.522 146.347C249.522 146.874 249.387 147.382 249.116 147.873C248.852 148.356 248.534 148.791 248.161 149.179C247.795 149.559 247.327 150.002 246.756 150.507L246.262 150.946H249.742V151.989H244.407V151.078L245.197 150.397ZM250.841 147.993C250.841 146.727 251.053 145.74 251.477 145.03C251.909 144.313 252.648 143.954 253.695 143.954C254.741 143.954 255.476 144.313 255.901 145.03C256.333 145.74 256.549 146.727 256.549 147.993C256.549 149.274 256.333 150.277 255.901 151.001C255.476 151.718 254.741 152.077 253.695 152.077C252.648 152.077 251.909 151.718 251.477 151.001C251.053 150.277 250.841 149.274 250.841 147.993ZM255.319 147.993C255.319 147.401 255.279 146.899 255.198 146.49C255.125 146.08 254.972 145.747 254.737 145.491C254.503 145.227 254.156 145.096 253.695 145.096C253.234 145.096 252.886 145.227 252.652 145.491C252.418 145.747 252.26 146.08 252.18 146.49C252.107 146.899 252.07 147.401 252.07 147.993C252.07 148.608 252.107 149.124 252.18 149.541C252.253 149.958 252.407 150.295 252.641 150.551C252.882 150.807 253.234 150.935 253.695 150.935C254.156 150.935 254.503 150.807 254.737 150.551C254.979 150.295 255.136 149.958 255.209 149.541C255.283 149.124 255.319 148.608 255.319 147.993Z" fill="black" fill-opacity="0.54"/>
<path d="M291.179 150.397C291.881 149.79 292.434 149.292 292.836 148.904C293.246 148.509 293.586 148.1 293.857 147.675C294.128 147.251 294.263 146.826 294.263 146.402C294.263 145.963 294.157 145.619 293.945 145.37C293.74 145.121 293.414 144.997 292.968 144.997C292.536 144.997 292.2 145.136 291.958 145.414C291.724 145.685 291.6 146.051 291.585 146.512H290.378C290.4 145.677 290.648 145.041 291.124 144.602C291.607 144.155 292.218 143.932 292.957 143.932C293.755 143.932 294.377 144.152 294.823 144.591C295.277 145.03 295.504 145.615 295.504 146.347C295.504 146.874 295.368 147.382 295.097 147.873C294.834 148.356 294.516 148.791 294.142 149.179C293.777 149.559 293.308 150.002 292.737 150.507L292.244 150.946H295.723V151.989H290.389V151.078L291.179 150.397ZM296.822 147.993C296.822 146.727 297.035 145.74 297.459 145.03C297.891 144.313 298.63 143.954 299.676 143.954C300.723 143.954 301.458 144.313 301.882 145.03C302.314 145.74 302.53 146.727 302.53 147.993C302.53 149.274 302.314 150.277 301.882 151.001C301.458 151.718 300.723 152.077 299.676 152.077C298.63 152.077 297.891 151.718 297.459 151.001C297.035 150.277 296.822 149.274 296.822 147.993ZM301.301 147.993C301.301 147.401 301.26 146.899 301.18 146.49C301.107 146.08 300.953 145.747 300.719 145.491C300.485 145.227 300.137 145.096 299.676 145.096C299.215 145.096 298.868 145.227 298.633 145.491C298.399 145.747 298.242 146.08 298.161 146.49C298.088 146.899 298.052 147.401 298.052 147.993C298.052 148.608 298.088 149.124 298.161 149.541C298.235 149.958 298.388 150.295 298.622 150.551C298.864 150.807 299.215 150.935 299.676 150.935C300.137 150.935 300.485 150.807 300.719 150.551C300.96 150.295 301.118 149.958 301.191 149.541C301.264 149.124 301.301 148.608 301.301 147.993ZM304.546 150.397C305.248 149.79 305.801 149.292 306.203 148.904C306.613 148.509 306.953 148.1 307.224 147.675C307.495 147.251 307.63 146.826 307.63 146.402C307.63 145.963 307.524 145.619 307.312 145.37C307.107 145.121 306.781 144.997 306.335 144.997C305.903 144.997 305.566 145.136 305.325 145.414C305.091 145.685 304.966 146.051 304.952 146.512H303.744C303.766 145.677 304.015 145.041 304.491 144.602C304.974 144.155 305.585 143.932 306.324 143.932C307.121 143.932 307.743 144.152 308.19 144.591C308.644 145.03 308.87 145.615 308.87 146.347C308.87 146.874 308.735 147.382 308.464 147.873C308.201 148.356 307.882 148.791 307.509 149.179C307.143 149.559 306.675 150.002 306.104 150.507L305.61 150.946H309.09V151.989H303.755V151.078L304.546 150.397ZM310.881 150.397C311.583 149.79 312.136 149.292 312.538 148.904C312.948 148.509 313.288 148.1 313.559 147.675C313.83 147.251 313.965 146.826 313.965 146.402C313.965 145.963 313.859 145.619 313.647 145.37C313.442 145.121 313.116 144.997 312.67 144.997C312.238 144.997 311.901 145.136 311.66 145.414C311.426 145.685 311.301 146.051 311.287 146.512H310.079C310.101 145.677 310.35 145.041 310.826 144.602C311.309 144.155 311.92 143.932 312.659 143.932C313.456 143.932 314.078 144.152 314.525 144.591C314.979 145.03 315.205 145.615 315.205 146.347C315.205 146.874 315.07 147.382 314.799 147.873C314.536 148.356 314.218 148.791 313.844 149.179C313.478 149.559 313.01 150.002 312.439 150.507L311.945 150.946H315.425V151.989H310.09V151.078L310.881 150.397Z" fill="black" fill-opacity="0.54"/>
<path d="M349.793 150.397C350.495 149.79 351.048 149.292 351.45 148.904C351.86 148.509 352.2 148.1 352.471 147.675C352.742 147.251 352.877 146.826 352.877 146.402C352.877 145.963 352.771 145.619 352.559 145.37C352.354 145.121 352.028 144.997 351.582 144.997C351.15 144.997 350.814 145.136 350.572 145.414C350.338 145.685 350.214 146.051 350.199 146.512H348.992C349.014 145.677 349.262 145.041 349.738 144.602C350.221 144.155 350.832 143.932 351.571 143.932C352.369 143.932 352.991 144.152 353.437 144.591C353.891 145.03 354.118 145.615 354.118 146.347C354.118 146.874 353.982 147.382 353.712 147.873C353.448 148.356 353.13 148.791 352.757 149.179C352.391 149.559 351.922 150.002 351.352 150.507L350.858 150.946H354.337V151.989H349.003V151.078L349.793 150.397ZM355.436 147.993C355.436 146.727 355.649 145.74 356.073 145.03C356.505 144.313 357.244 143.954 358.29 143.954C359.337 143.954 360.072 144.313 360.497 145.03C360.928 145.74 361.144 146.727 361.144 147.993C361.144 149.274 360.928 150.277 360.497 151.001C360.072 151.718 359.337 152.077 358.29 152.077C357.244 152.077 356.505 151.718 356.073 151.001C355.649 150.277 355.436 149.274 355.436 147.993ZM359.915 147.993C359.915 147.401 359.875 146.899 359.794 146.49C359.721 146.08 359.567 145.747 359.333 145.491C359.099 145.227 358.751 145.096 358.29 145.096C357.829 145.096 357.482 145.227 357.248 145.491C357.013 145.747 356.856 146.08 356.776 146.49C356.702 146.899 356.666 147.401 356.666 147.993C356.666 148.608 356.702 149.124 356.776 149.541C356.849 149.958 357.002 150.295 357.237 150.551C357.478 150.807 357.829 150.935 358.29 150.935C358.751 150.935 359.099 150.807 359.333 150.551C359.575 150.295 359.732 149.958 359.805 149.541C359.878 149.124 359.915 148.608 359.915 147.993ZM363.16 150.397C363.862 149.79 364.415 149.292 364.817 148.904C365.227 148.509 365.567 148.1 365.838 147.675C366.109 147.251 366.244 146.826 366.244 146.402C366.244 145.963 366.138 145.619 365.926 145.37C365.721 145.121 365.395 144.997 364.949 144.997C364.517 144.997 364.181 145.136 363.939 145.414C363.705 145.685 363.581 146.051 363.566 146.512H362.358C362.38 145.677 362.629 145.041 363.105 144.602C363.588 144.155 364.199 143.932 364.938 143.932C365.736 143.932 366.358 144.152 366.804 144.591C367.258 145.03 367.484 145.615 367.484 146.347C367.484 146.874 367.349 147.382 367.078 147.873C366.815 148.356 366.497 148.791 366.123 149.179C365.758 149.559 365.289 150.002 364.718 150.507L364.224 150.946H367.704V151.989H362.369V151.078L363.16 150.397ZM368.65 150.43V149.486L372.338 144.196H373.852V149.344H374.873V150.43H373.852V152.099H372.623V150.43H368.65ZM372.678 145.469L370.088 149.344H372.678V145.469Z" fill="black" fill-opacity="0.54"/>
<defs>
<linearGradient id="paint0_linear_401_8282" x1="213.27" y1="18.3406" x2="217.347" y2="124.099" gradientUnits="userSpaceOnUse">
<stop stop-color="#48CFCB" stop-opacity="0.52"/>
<stop offset="0.784666" stop-color="#D9D9D9" stop-opacity="0"/>
</linearGradient>
</defs>
</svg>
