<svg width="372" height="150" viewBox="0 0 372 150" fill="none" xmlns="http://www.w3.org/2000/svg">
<path d="M50.9423 6.137C51.7545 6.137 52.4643 6.29433 53.0717 6.60899C53.6864 6.91633 54.1584 7.36271 54.4877 7.94812C54.8243 8.52621 54.9926 9.20309 54.9926 9.97876C54.9926 10.7544 54.8243 11.4276 54.4877 11.9984C54.1584 12.5692 53.6864 13.0083 53.0717 13.3156C52.4643 13.6156 51.7545 13.7656 50.9423 13.7656H48.4506V6.137H50.9423ZM50.9423 12.7448C51.835 12.7448 52.5192 12.5033 52.9949 12.0204C53.4705 11.5374 53.7083 10.8569 53.7083 9.97876C53.7083 9.09332 53.4705 8.40181 52.9949 7.90421C52.5192 7.40661 51.835 7.15781 50.9423 7.15781H49.7019V12.7448H50.9423ZM61.7758 10.5934C61.7758 10.8203 61.7612 11.0252 61.7319 11.2081H57.1108C57.1474 11.6911 57.3267 12.0789 57.6487 12.3716C57.9707 12.6643 58.3658 12.8107 58.8341 12.8107C59.5074 12.8107 59.983 12.5289 60.2611 11.9655H61.6112C61.4282 12.5216 61.0953 12.979 60.6123 13.3375C60.1367 13.6888 59.544 13.8644 58.8341 13.8644C58.2561 13.8644 57.7365 13.7364 57.2755 13.4802C56.8218 13.2168 56.4632 12.8509 56.1998 12.3826C55.9437 11.9069 55.8156 11.3581 55.8156 10.7361C55.8156 10.1141 55.94 9.56897 56.1888 9.10064C56.4449 8.625 56.7998 8.25911 57.2535 8.003C57.7146 7.74688 58.2414 7.61882 58.8341 7.61882C59.4049 7.61882 59.9135 7.74322 60.3599 7.99202C60.8062 8.24082 61.1538 8.59207 61.4026 9.04576C61.6514 9.49213 61.7758 10.008 61.7758 10.5934ZM60.4696 10.1983C60.4623 9.73727 60.2977 9.36773 59.9757 9.08966C59.6537 8.8116 59.2549 8.67256 58.7793 8.67256C58.3475 8.67256 57.978 8.8116 57.6706 9.08966C57.3633 9.36042 57.1804 9.72996 57.1218 10.1983H60.4696ZM64.2586 8.6067C64.4708 8.32863 64.7598 8.09447 65.1257 7.90421C65.4916 7.71395 65.905 7.61882 66.366 7.61882C66.8929 7.61882 67.3722 7.75054 67.8039 8.01397C68.243 8.27009 68.5869 8.63231 68.8357 9.10064C69.0845 9.56897 69.2089 10.1068 69.2089 10.7142C69.2089 11.3215 69.0845 11.8667 68.8357 12.3497C68.5869 12.8253 68.243 13.1985 67.8039 13.4693C67.3722 13.7327 66.8929 13.8644 66.366 13.8644C65.905 13.8644 65.4952 13.7729 65.1367 13.59C64.7781 13.3997 64.4854 13.1656 64.2586 12.8875V16.6415H63.0072V7.71761H64.2586V8.6067ZM67.9357 10.7142C67.9357 10.2971 67.8479 9.93851 67.6722 9.63849C67.5039 9.33115 67.2771 9.10064 66.9917 8.94697C66.7136 8.78598 66.4136 8.70549 66.0916 8.70549C65.777 8.70549 65.4769 8.78598 65.1916 8.94697C64.9135 9.10796 64.6866 9.34212 64.511 9.64946C64.3427 9.9568 64.2586 10.319 64.2586 10.7361C64.2586 11.1532 64.3427 11.5191 64.511 11.8338C64.6866 12.1411 64.9135 12.3753 65.1916 12.5363C65.4769 12.6973 65.777 12.7777 66.0916 12.7777C66.4136 12.7777 66.7136 12.6973 66.9917 12.5363C67.2771 12.368 67.5039 12.1265 67.6722 11.8118C67.8479 11.4972 67.9357 11.1313 67.9357 10.7142ZM71.6977 8.59573C71.8806 8.28839 72.1221 8.05056 72.4221 7.88226C72.7295 7.70663 73.0917 7.61882 73.5088 7.61882V8.91404H73.1905C72.7002 8.91404 72.327 9.03844 72.0709 9.28724C71.8221 9.53604 71.6977 9.96778 71.6977 10.5825V13.7656H70.4464V7.71761H71.6977V8.59573ZM80.2021 10.5934C80.2021 10.8203 80.1875 11.0252 80.1582 11.2081H75.5371C75.5737 11.6911 75.753 12.0789 76.0749 12.3716C76.3969 12.6643 76.7921 12.8107 77.2604 12.8107C77.9336 12.8107 78.4093 12.5289 78.6873 11.9655H80.0374C79.8545 12.5216 79.5215 12.979 79.0386 13.3375C78.5629 13.6888 77.9702 13.8644 77.2604 13.8644C76.6823 13.8644 76.1628 13.7364 75.7017 13.4802C75.2481 13.2168 74.8895 12.8509 74.6261 12.3826C74.3699 11.9069 74.2419 11.3581 74.2419 10.7361C74.2419 10.1141 74.3663 9.56897 74.6151 9.10064C74.8712 8.625 75.2261 8.25911 75.6798 8.003C76.1408 7.74688 76.6677 7.61882 77.2604 7.61882C77.8312 7.61882 78.3398 7.74322 78.7861 7.99202C79.2325 8.24082 79.5801 8.59207 79.8289 9.04576C80.0777 9.49213 80.2021 10.008 80.2021 10.5934ZM78.8959 10.1983C78.8886 9.73727 78.7239 9.36773 78.402 9.08966C78.08 8.8116 77.6812 8.67256 77.2055 8.67256C76.7738 8.67256 76.4042 8.8116 76.0969 9.08966C75.7896 9.36042 75.6066 9.72996 75.5481 10.1983H78.8959ZM83.6288 13.8644C83.1531 13.8644 82.7251 13.7803 82.3446 13.612C81.9714 13.4363 81.675 13.2022 81.4555 12.9095C81.2359 12.6094 81.1188 12.2765 81.1042 11.9106H82.3994C82.4214 12.1667 82.5421 12.3826 82.7617 12.5582C82.9885 12.7265 83.2702 12.8107 83.6068 12.8107C83.9581 12.8107 84.2288 12.7448 84.4191 12.6131C84.6167 12.4741 84.7155 12.2984 84.7155 12.0862C84.7155 11.8594 84.6057 11.6911 84.3862 11.5813C84.174 11.4716 83.8337 11.3508 83.3654 11.2191C82.9117 11.0947 82.5421 10.974 82.2567 10.8569C81.9714 10.7398 81.7226 10.5605 81.5103 10.319C81.3054 10.0775 81.203 9.75923 81.203 9.36408C81.203 9.0421 81.2981 8.7494 81.4884 8.48596C81.6786 8.21521 81.9494 8.003 82.3006 7.84933C82.6592 7.69566 83.069 7.61882 83.53 7.61882C84.2179 7.61882 84.7703 7.79445 85.1874 8.14569C85.6119 8.48962 85.8387 8.96161 85.868 9.56165H84.6167C84.5947 9.2909 84.485 9.07503 84.2874 8.91404C84.0898 8.75305 83.8227 8.67256 83.4861 8.67256C83.1568 8.67256 82.9043 8.73476 82.7287 8.85916C82.5531 8.98356 82.4653 9.14821 82.4653 9.3531C82.4653 9.51409 82.5238 9.64946 82.6409 9.75923C82.758 9.86899 82.9007 9.9568 83.069 10.0227C83.2373 10.0812 83.4861 10.158 83.8154 10.2532C84.2545 10.3702 84.613 10.491 84.8911 10.6154C85.1765 10.7325 85.4216 10.9081 85.6265 11.1423C85.8314 11.3764 85.9375 11.6874 85.9448 12.0753C85.9448 12.4192 85.8497 12.7265 85.6594 12.9973C85.4692 13.268 85.1984 13.4802 84.8472 13.6339C84.5032 13.7876 84.0971 13.8644 83.6288 13.8644ZM87.9335 6.91633C87.7067 6.91633 87.5164 6.8395 87.3628 6.68583C87.2091 6.53216 87.1322 6.3419 87.1322 6.11505C87.1322 5.88821 87.2091 5.69795 87.3628 5.54428C87.5164 5.39061 87.7067 5.31377 87.9335 5.31377C88.1531 5.31377 88.3397 5.39061 88.4933 5.54428C88.647 5.69795 88.7238 5.88821 88.7238 6.11505C88.7238 6.3419 88.647 6.53216 88.4933 6.68583C88.3397 6.8395 88.1531 6.91633 87.9335 6.91633ZM88.5482 7.71761V13.7656H87.2969V7.71761H88.5482Z" fill="black"/>
<path d="M58.3712 38.6237C57.8589 38.6237 57.3979 38.5359 56.9881 38.3603C56.5783 38.1773 56.2564 37.9212 56.0222 37.5919C55.788 37.2626 55.671 36.8785 55.671 36.4394H57.0101C57.0394 36.7687 57.1674 37.0394 57.3943 37.2517C57.6284 37.4639 57.9541 37.57 58.3712 37.57C58.8029 37.57 59.1395 37.4675 59.381 37.2626C59.6225 37.0504 59.7432 36.7797 59.7432 36.4504C59.7432 36.1943 59.6664 35.9857 59.5127 35.8247C59.3664 35.6637 59.1798 35.5393 58.9529 35.4515C58.7334 35.3637 58.426 35.2686 58.0309 35.1661C57.5333 35.0344 57.1272 34.9027 56.8125 34.771C56.5052 34.6319 56.2417 34.4197 56.0222 34.1343C55.8027 33.849 55.6929 33.4684 55.6929 32.9928C55.6929 32.5537 55.8027 32.1696 56.0222 31.8403C56.2417 31.511 56.5491 31.2585 56.9442 31.0829C57.3394 30.9073 57.7967 30.8195 58.3163 30.8195C59.0554 30.8195 59.6591 31.0061 60.1274 31.3793C60.603 31.7451 60.8665 32.2501 60.9177 32.894H59.5347C59.5127 32.6159 59.381 32.3781 59.1395 32.1805C58.898 31.983 58.5797 31.8842 58.1846 31.8842C57.826 31.8842 57.5333 31.9757 57.3065 32.1586C57.0796 32.3415 56.9662 32.605 56.9662 32.9489C56.9662 33.1831 57.0357 33.377 57.1747 33.5306C57.3211 33.677 57.504 33.7941 57.7236 33.8819C57.9431 33.9697 58.2431 34.0648 58.6236 34.1673C59.1285 34.3063 59.5383 34.4453 59.853 34.5844C60.175 34.7234 60.4457 34.9393 60.6652 35.232C60.8921 35.5174 61.0055 35.9016 61.0055 36.3845C61.0055 36.7724 60.8994 37.1382 60.6872 37.4822C60.4823 37.8261 60.1786 38.1042 59.7761 38.3164C59.381 38.5213 58.9127 38.6237 58.3712 38.6237ZM63.9419 33.5197V36.8675C63.9419 37.0943 63.9931 37.259 64.0955 37.3614C64.2053 37.4565 64.3882 37.5041 64.6444 37.5041H65.4127V38.5469H64.4248C63.8614 38.5469 63.4296 38.4152 63.1296 38.1517C62.8296 37.8883 62.6796 37.4602 62.6796 36.8675V33.5197H61.9661V32.4989H62.6796V30.9951H63.9419V32.4989H65.4127V33.5197H63.9419ZM67.8173 33.377C68.0003 33.0696 68.2418 32.8318 68.5418 32.6635C68.8491 32.4879 69.2113 32.4001 69.6284 32.4001V33.6953H69.3101C68.8198 33.6953 68.4466 33.8197 68.1905 34.0685C67.9417 34.3173 67.8173 34.749 67.8173 35.3637V38.5469H66.566V32.4989H67.8173V33.377ZM76.3217 35.3747C76.3217 35.6015 76.3071 35.8064 76.2778 35.9894H71.6568C71.6933 36.4723 71.8726 36.8602 72.1946 37.1529C72.5166 37.4456 72.9117 37.5919 73.3801 37.5919C74.0533 37.5919 74.5289 37.3102 74.807 36.7467H76.1571C75.9742 37.3029 75.6412 37.7602 75.1582 38.1188C74.6826 38.47 74.0899 38.6457 73.3801 38.6457C72.802 38.6457 72.2824 38.5176 71.8214 38.2615C71.3677 37.9981 71.0092 37.6322 70.7457 37.1638C70.4896 36.6882 70.3615 36.1394 70.3615 35.5174C70.3615 34.8954 70.4859 34.3502 70.7347 33.8819C70.9909 33.4062 71.3458 33.0404 71.7995 32.7842C72.2605 32.5281 72.7873 32.4001 73.3801 32.4001C73.9508 32.4001 74.4594 32.5245 74.9058 32.7733C75.3522 33.0221 75.6997 33.3733 75.9485 33.827C76.1973 34.2734 76.3217 34.7893 76.3217 35.3747ZM75.0155 34.9795C75.0082 34.5185 74.8436 34.149 74.5216 33.8709C74.1996 33.5928 73.8008 33.4538 73.3252 33.4538C72.8934 33.4538 72.5239 33.5928 72.2166 33.8709C71.9092 34.1417 71.7263 34.5112 71.6677 34.9795H75.0155ZM83.0963 35.3747C83.0963 35.6015 83.0816 35.8064 83.0524 35.9894H78.4313C78.4679 36.4723 78.6472 36.8602 78.9691 37.1529C79.2911 37.4456 79.6863 37.5919 80.1546 37.5919C80.8278 37.5919 81.3034 37.3102 81.5815 36.7467H82.9316C82.7487 37.3029 82.4157 37.7602 81.9328 38.1188C81.4571 38.47 80.8644 38.6457 80.1546 38.6457C79.5765 38.6457 79.0569 38.5176 78.5959 38.2615C78.1422 37.9981 77.7837 37.6322 77.5202 37.1638C77.2641 36.6882 77.1361 36.1394 77.1361 35.5174C77.1361 34.8954 77.2605 34.3502 77.5093 33.8819C77.7654 33.4062 78.1203 33.0404 78.574 32.7842C79.035 32.5281 79.5619 32.4001 80.1546 32.4001C80.7254 32.4001 81.2339 32.5245 81.6803 32.7733C82.1267 33.0221 82.4743 33.3733 82.7231 33.827C82.9719 34.2734 83.0963 34.7893 83.0963 35.3747ZM81.7901 34.9795C81.7828 34.5185 81.6181 34.149 81.2961 33.8709C80.9742 33.5928 80.5753 33.4538 80.0997 33.4538C79.668 33.4538 79.2984 33.5928 78.9911 33.8709C78.6837 34.1417 78.5008 34.5112 78.4423 34.9795H81.7901ZM86.523 38.6457C86.0473 38.6457 85.6192 38.5615 85.2387 38.3932C84.8655 38.2176 84.5692 37.9834 84.3496 37.6907C84.1301 37.3907 84.013 37.0577 83.9984 36.6919H85.2936C85.3156 36.948 85.4363 37.1638 85.6558 37.3395C85.8827 37.5078 86.1644 37.5919 86.501 37.5919C86.8523 37.5919 87.123 37.5261 87.3133 37.3943C87.5108 37.2553 87.6096 37.0797 87.6096 36.8675C87.6096 36.6406 87.4999 36.4723 87.2803 36.3626C87.0681 36.2528 86.7279 36.1321 86.2595 36.0003C85.8058 35.8759 85.4363 35.7552 85.1509 35.6381C84.8655 35.521 84.6167 35.3418 84.4045 35.1003C84.1996 34.8588 84.0972 34.5405 84.0972 34.1453C84.0972 33.8234 84.1923 33.5306 84.3826 33.2672C84.5728 32.9965 84.8436 32.7842 85.1948 32.6306C85.5534 32.4769 85.9632 32.4001 86.4242 32.4001C87.112 32.4001 87.6645 32.5757 88.0816 32.9269C88.506 33.2709 88.7329 33.7429 88.7622 34.3429H87.5108C87.4889 34.0721 87.3791 33.8563 87.1816 33.6953C86.984 33.5343 86.7169 33.4538 86.3803 33.4538C86.051 33.4538 85.7985 33.516 85.6229 33.6404C85.4473 33.7648 85.3595 33.9295 85.3595 34.1343C85.3595 34.2953 85.418 34.4307 85.5351 34.5405C85.6522 34.6502 85.7949 34.7381 85.9632 34.8039C86.1315 34.8625 86.3803 34.9393 86.7096 35.0344C87.1486 35.1515 87.5072 35.2722 87.7853 35.3966C88.0706 35.5137 88.3158 35.6893 88.5207 35.9235C88.7256 36.1577 88.8317 36.4687 88.839 36.8565C88.839 37.2004 88.7439 37.5078 88.5536 37.7785C88.3633 38.0493 88.0926 38.2615 87.7414 38.4152C87.3974 38.5688 86.9913 38.6457 86.523 38.6457Z" fill="black"/>
<path d="M47.5264 55.6995V56.7203H45.4957V63.3281H44.2444V56.7203H42.2028V55.6995H47.5264ZM48.3765 60.2767C48.3765 59.6693 48.5009 59.1315 48.7497 58.6631C49.0058 58.1948 49.3498 57.8326 49.7815 57.5765C50.2206 57.313 50.7035 57.1813 51.2304 57.1813C51.706 57.1813 52.1195 57.2765 52.4707 57.4667C52.8293 57.6497 53.1147 57.8802 53.3269 58.1582V57.2801H54.5892V63.3281H53.3269V62.4281C53.1147 62.7134 52.8256 62.9513 52.4598 63.1415C52.0939 63.3318 51.6768 63.4269 51.2084 63.4269C50.6889 63.4269 50.2132 63.2952 49.7815 63.0318C49.3498 62.761 49.0058 62.3878 48.7497 61.9122C48.5009 61.4292 48.3765 60.884 48.3765 60.2767ZM53.3269 60.2986C53.3269 59.8815 53.2391 59.5193 53.0635 59.212C52.8952 58.9046 52.672 58.6705 52.3939 58.5095C52.1158 58.3485 51.8158 58.268 51.4938 58.268C51.1719 58.268 50.8718 58.3485 50.5938 58.5095C50.3157 58.6631 50.0888 58.8936 49.9132 59.201C49.7449 59.501 49.6608 59.8596 49.6608 60.2767C49.6608 60.6938 49.7449 61.0597 49.9132 61.3743C50.0888 61.689 50.3157 61.9305 50.5938 62.0988C50.8791 62.2598 51.1792 62.3402 51.4938 62.3402C51.8158 62.3402 52.1158 62.2598 52.3939 62.0988C52.672 61.9378 52.8952 61.7036 53.0635 61.3963C53.2391 61.0816 53.3269 60.7157 53.3269 60.2986ZM59.2842 57.1813C59.7598 57.1813 60.1842 57.2801 60.5574 57.4777C60.938 57.6753 61.2343 57.968 61.4465 58.3558C61.6587 58.7436 61.7649 59.212 61.7649 59.7608V63.3281H60.5245V59.9474C60.5245 59.4059 60.3891 58.9924 60.1184 58.707C59.8476 58.4143 59.4781 58.268 59.0098 58.268C58.5414 58.268 58.1682 58.4143 57.8902 58.707C57.6194 58.9924 57.484 59.4059 57.484 59.9474V63.3281H56.2327V57.2801H57.484V57.9716C57.6889 57.7228 57.9487 57.5289 58.2634 57.3899C58.5853 57.2508 58.9256 57.1813 59.2842 57.1813ZM64.8208 58.3009V61.6487C64.8208 61.8756 64.8721 62.0402 64.9745 62.1427C65.0843 62.2378 65.2672 62.2854 65.5233 62.2854H66.2917V63.3281H65.3038C64.7404 63.3281 64.3086 63.1964 64.0086 62.933C63.7086 62.6695 63.5586 62.2415 63.5586 61.6487V58.3009H62.8451V57.2801H63.5586V55.7763H64.8208V57.2801H66.2917V58.3009H64.8208ZM68.6963 58.1582C68.8792 57.8509 69.1207 57.6131 69.4207 57.4448C69.7281 57.2691 70.0903 57.1813 70.5074 57.1813V58.4765H70.1891C69.6988 58.4765 69.3256 58.6009 69.0695 58.8497C68.8207 59.0985 68.6963 59.5303 68.6963 60.145V63.3281H67.445V57.2801H68.6963V58.1582ZM77.1349 57.2801V63.3281H75.8835V62.6147C75.686 62.8635 75.4262 63.061 75.1042 63.2074C74.7896 63.3464 74.4529 63.4159 74.0944 63.4159C73.6187 63.4159 73.1907 63.3171 72.8101 63.1196C72.4369 62.922 72.1406 62.6293 71.921 62.2415C71.7088 61.8536 71.6027 61.3853 71.6027 60.8365V57.2801H72.8431V60.6499C72.8431 61.1914 72.9784 61.6085 73.2492 61.9012C73.5199 62.1866 73.8895 62.3293 74.3578 62.3293C74.8261 62.3293 75.1957 62.1866 75.4664 61.9012C75.7445 61.6085 75.8835 61.1914 75.8835 60.6499V57.2801H77.1349ZM86.1071 57.1813C86.5828 57.1813 87.0072 57.2801 87.3804 57.4777C87.7609 57.6753 88.0573 57.968 88.2695 58.3558C88.489 58.7436 88.5988 59.212 88.5988 59.7608V63.3281H87.3585V59.9474C87.3585 59.4059 87.2231 58.9924 86.9523 58.707C86.6816 58.4143 86.312 58.268 85.8437 58.268C85.3754 58.268 85.0022 58.4143 84.7241 58.707C84.4534 58.9924 84.318 59.4059 84.318 59.9474V63.3281H83.0776V59.9474C83.0776 59.4059 82.9423 58.9924 82.6715 58.707C82.4008 58.4143 82.0312 58.268 81.5629 58.268C81.0946 58.268 80.7214 58.4143 80.4433 58.707C80.1726 58.9924 80.0372 59.4059 80.0372 59.9474V63.3281H78.7859V57.2801H80.0372V57.9716C80.2421 57.7228 80.5018 57.5289 80.8165 57.3899C81.1312 57.2508 81.4678 57.1813 81.8263 57.1813C82.3093 57.1813 82.741 57.2838 83.1216 57.4887C83.5021 57.6936 83.7948 57.9899 83.9997 58.3778C84.1826 58.0119 84.468 57.7228 84.8558 57.5106C85.2437 57.2911 85.6608 57.1813 86.1071 57.1813Z" fill="black"/>
<path d="M28.2296 80.4803V88.1089H26.9783V82.8841L24.6513 88.1089H23.7842L21.4462 82.8841V88.1089H20.1949V80.4803H21.545L24.2232 86.4624L26.8905 80.4803H28.2296ZM35.4174 84.9367C35.4174 85.1635 35.4028 85.3684 35.3735 85.5514H30.7524C30.789 86.0343 30.9683 86.4222 31.2902 86.7149C31.6122 87.0076 32.0074 87.1539 32.4757 87.1539C33.1489 87.1539 33.6246 86.8722 33.9026 86.3088H35.2527C35.0698 86.8649 34.7368 87.3222 34.2539 87.6808C33.7782 88.0321 33.1855 88.2077 32.4757 88.2077C31.8976 88.2077 31.3781 88.0796 30.917 87.8235C30.4634 87.5601 30.1048 87.1942 29.8414 86.7259C29.5852 86.2502 29.4572 85.7014 29.4572 85.0794C29.4572 84.4574 29.5816 83.9122 29.8304 83.4439C30.0865 82.9683 30.4414 82.6024 30.8951 82.3463C31.3561 82.0901 31.883 81.9621 32.4757 81.9621C33.0465 81.9621 33.5551 82.0865 34.0014 82.3353C34.4478 82.5841 34.7954 82.9353 35.0442 83.389C35.293 83.8354 35.4174 84.3513 35.4174 84.9367ZM34.1112 84.5415C34.1039 84.0805 33.9392 83.711 33.6173 83.4329C33.2953 83.1549 32.8965 83.0158 32.4208 83.0158C31.9891 83.0158 31.6195 83.1549 31.3122 83.4329C31.0049 83.7037 30.8219 84.0732 30.7634 84.5415H34.1112ZM39.7002 81.9621C40.1759 81.9621 40.6003 82.0609 40.9735 82.2584C41.354 82.456 41.6504 82.7487 41.8626 83.1366C42.0748 83.5244 42.1809 83.9927 42.1809 84.5415V88.1089H40.9406V84.7281C40.9406 84.1866 40.8052 83.7732 40.5345 83.4878C40.2637 83.1951 39.8942 83.0488 39.4258 83.0488C38.9575 83.0488 38.5843 83.1951 38.3062 83.4878C38.0355 83.7732 37.9001 84.1866 37.9001 84.7281V88.1089H36.6488V82.0609H37.9001V82.7524C38.105 82.5036 38.3648 82.3097 38.6794 82.1706C39.0014 82.0316 39.3417 81.9621 39.7002 81.9621ZM49.2543 82.0609V88.1089H48.003V87.3954C47.8054 87.6442 47.5456 87.8418 47.2237 87.9881C46.909 88.1272 46.5724 88.1967 46.2138 88.1967C45.7382 88.1967 45.3101 88.0979 44.9296 87.9003C44.5564 87.7028 44.26 87.4101 44.0405 87.0222C43.8283 86.6344 43.7222 86.1661 43.7222 85.6172V82.0609H44.9625V85.4306C44.9625 85.9721 45.0979 86.3892 45.3686 86.682C45.6394 86.9673 46.0089 87.11 46.4773 87.11C46.9456 87.11 47.3151 86.9673 47.5859 86.682C47.8639 86.3892 48.003 85.9721 48.003 85.4306V82.0609H49.2543ZM52.3652 83.0817V86.4295C52.3652 86.6563 52.4164 86.821 52.5188 86.9234C52.6286 87.0186 52.8115 87.0661 53.0677 87.0661H53.836V88.1089H52.8481C52.2847 88.1089 51.8529 87.9772 51.5529 87.7137C51.2529 87.4503 51.1029 87.0222 51.1029 86.4295V83.0817H50.3894V82.0609H51.1029V80.5571H52.3652V82.0609H53.836V83.0817H52.3652ZM60.4665 82.0609V88.1089H59.2152V87.3954C59.0177 87.6442 58.7579 87.8418 58.4359 87.9881C58.1212 88.1272 57.7846 88.1967 57.4261 88.1967C56.9504 88.1967 56.5223 88.0979 56.1418 87.9003C55.7686 87.7028 55.4723 87.4101 55.2527 87.0222C55.0405 86.6344 54.9344 86.1661 54.9344 85.6172V82.0609H56.1748V85.4306C56.1748 85.9721 56.3101 86.3892 56.5809 86.682C56.8516 86.9673 57.2212 87.11 57.6895 87.11C58.1578 87.11 58.5274 86.9673 58.7981 86.682C59.0762 86.3892 59.2152 85.9721 59.2152 85.4306V82.0609H60.4665ZM63.3689 82.95C63.5811 82.6719 63.8701 82.4377 64.236 82.2475C64.6019 82.0572 65.0153 81.9621 65.4763 81.9621C66.0032 81.9621 66.4825 82.0938 66.9143 82.3572C67.3533 82.6134 67.6972 82.9756 67.946 83.4439C68.1948 83.9122 68.3192 84.4501 68.3192 85.0574C68.3192 85.6648 68.1948 86.21 67.946 86.6929C67.6972 87.1686 67.3533 87.5418 66.9143 87.8125C66.4825 88.076 66.0032 88.2077 65.4763 88.2077C65.0153 88.2077 64.6055 88.1162 64.247 87.9333C63.8884 87.743 63.5957 87.5088 63.3689 87.2308V90.9847H62.1176V82.0609H63.3689V82.95ZM67.046 85.0574C67.046 84.6403 66.9582 84.2818 66.7825 83.9817C66.6142 83.6744 66.3874 83.4439 66.102 83.2902C65.8239 83.1292 65.5239 83.0488 65.2019 83.0488C64.8873 83.0488 64.5873 83.1292 64.3019 83.2902C64.0238 83.4512 63.7969 83.6854 63.6213 83.9927C63.453 84.3001 63.3689 84.6623 63.3689 85.0794C63.3689 85.4965 63.453 85.8624 63.6213 86.177C63.7969 86.4844 64.0238 86.7185 64.3019 86.8795C64.5873 87.0405 64.8873 87.121 65.2019 87.121C65.5239 87.121 65.8239 87.0405 66.102 86.8795C66.3874 86.7112 66.6142 86.4697 66.7825 86.1551C66.9582 85.8404 67.046 85.4745 67.046 85.0574ZM74.8996 80.4803C75.7119 80.4803 76.4217 80.6376 77.029 80.9523C77.6437 81.2596 78.1157 81.706 78.445 82.2914C78.7816 82.8695 78.9499 83.5463 78.9499 84.322C78.9499 85.0977 78.7816 85.7709 78.445 86.3417C78.1157 86.9125 77.6437 87.3515 77.029 87.6589C76.4217 87.9589 75.7119 88.1089 74.8996 88.1089H72.408V80.4803H74.8996ZM74.8996 87.0881C75.7924 87.0881 76.4766 86.8466 76.9522 86.3636C77.4279 85.8807 77.6657 85.2001 77.6657 84.322C77.6657 83.4366 77.4279 82.7451 76.9522 82.2475C76.4766 81.7499 75.7924 81.5011 74.8996 81.5011H73.6593V87.0881H74.8996ZM80.8267 81.2596C80.5999 81.2596 80.4096 81.1828 80.2559 81.0291C80.1023 80.8754 80.0254 80.6852 80.0254 80.4583C80.0254 80.2315 80.1023 80.0412 80.2559 79.8875C80.4096 79.7339 80.5999 79.657 80.8267 79.657C81.0462 79.657 81.2328 79.7339 81.3865 79.8875C81.5402 80.0412 81.617 80.2315 81.617 80.4583C81.617 80.6852 81.5402 80.8754 81.3865 81.0291C81.2328 81.1828 81.0462 81.2596 80.8267 81.2596ZM81.4414 82.0609V88.1089H80.1901V82.0609H81.4414ZM84.3356 82.939C84.5185 82.6316 84.76 82.3938 85.06 82.2255C85.3674 82.0499 85.7296 81.9621 86.1467 81.9621V83.2573H85.8284C85.3381 83.2573 84.9649 83.3817 84.7088 83.6305C84.46 83.8793 84.3356 84.311 84.3356 84.9257V88.1089H83.0843V82.0609H84.3356V82.939ZM87.9335 81.2596C87.7067 81.2596 87.5164 81.1828 87.3627 81.0291C87.2091 80.8754 87.1322 80.6852 87.1322 80.4583C87.1322 80.2315 87.2091 80.0412 87.3627 79.8875C87.5164 79.7339 87.7067 79.657 87.9335 79.657C88.153 79.657 88.3396 79.7339 88.4933 79.8875C88.647 80.0412 88.7238 80.2315 88.7238 80.4583C88.7238 80.6852 88.647 80.8754 88.4933 81.0291C88.3396 81.1828 88.153 81.2596 87.9335 81.2596ZM88.5482 82.0609V88.1089H87.2969V82.0609H88.5482Z" fill="black"/>
<path d="M6.80312 107.457C6.60554 107.076 6.33113 106.791 5.97989 106.601C5.62864 106.403 5.22251 106.304 4.7615 106.304C4.25659 106.304 3.80655 106.418 3.4114 106.645C3.01625 106.871 2.70525 107.193 2.4784 107.61C2.25888 108.028 2.14911 108.511 2.14911 109.059C2.14911 109.608 2.25888 110.095 2.4784 110.519C2.70525 110.936 3.01625 111.258 3.4114 111.485C3.80655 111.712 4.25659 111.825 4.7615 111.825C5.44204 111.825 5.99452 111.635 6.41894 111.255C6.84336 110.874 7.10314 110.358 7.19827 109.707H4.33342V108.708H8.53739V109.685C8.4569 110.278 8.24469 110.823 7.90076 111.321C7.56415 111.818 7.12143 112.217 6.57261 112.517C6.03111 112.81 5.42741 112.956 4.7615 112.956C4.04437 112.956 3.38945 112.791 2.79672 112.462C2.20399 112.125 1.73201 111.661 1.38076 111.068C1.03683 110.475 0.864868 109.806 0.864868 109.059C0.864868 108.313 1.03683 107.643 1.38076 107.051C1.73201 106.458 2.20399 105.997 2.79672 105.668C3.39677 105.331 4.05169 105.163 4.7615 105.163C5.57376 105.163 6.29454 105.364 6.92386 105.766C7.56049 106.162 8.0215 106.725 8.30689 107.457H6.80312ZM9.35445 109.839C9.35445 109.231 9.47885 108.693 9.72765 108.225C9.98377 107.757 10.3277 107.395 10.7594 107.138C11.1985 106.875 11.6815 106.743 12.2083 106.743C12.684 106.743 13.0974 106.838 13.4487 107.029C13.8072 107.212 14.0926 107.442 14.3048 107.72V106.842H15.5671V112.89H14.3048V111.99C14.0926 112.275 13.8036 112.513 13.4377 112.704C13.0718 112.894 12.6547 112.989 12.1864 112.989C11.6668 112.989 11.1912 112.857 10.7594 112.594C10.3277 112.323 9.98377 111.95 9.72765 111.474C9.47885 110.991 9.35445 110.446 9.35445 109.839ZM14.3048 109.861C14.3048 109.444 14.217 109.081 14.0414 108.774C13.8731 108.467 13.6499 108.232 13.3718 108.071C13.0938 107.91 12.7937 107.83 12.4718 107.83C12.1498 107.83 11.8498 107.91 11.5717 108.071C11.2936 108.225 11.0668 108.456 10.8912 108.763C10.7228 109.063 10.6387 109.422 10.6387 109.839C10.6387 110.256 10.7228 110.622 10.8912 110.936C11.0668 111.251 11.2936 111.492 11.5717 111.661C11.8571 111.822 12.1571 111.902 12.4718 111.902C12.7937 111.902 13.0938 111.822 13.3718 111.661C13.6499 111.5 13.8731 111.266 14.0414 110.958C14.217 110.644 14.3048 110.278 14.3048 109.861ZM20.2621 106.743C20.7378 106.743 21.1622 106.842 21.5354 107.04C21.9159 107.237 22.2123 107.53 22.4245 107.918C22.6367 108.306 22.7428 108.774 22.7428 109.323V112.89H21.5024V109.509C21.5024 108.968 21.3671 108.554 21.0963 108.269C20.8256 107.976 20.456 107.83 19.9877 107.83C19.5194 107.83 19.1462 107.976 18.8681 108.269C18.5974 108.554 18.462 108.968 18.462 109.509V112.89H17.2107V106.842H18.462V107.534C18.6669 107.285 18.9266 107.091 19.2413 106.952C19.5633 106.813 19.9035 106.743 20.2621 106.743ZM26.7757 106.743C27.244 106.743 27.6575 106.838 28.016 107.029C28.3819 107.212 28.6673 107.442 28.8722 107.72V106.842H30.1345V112.989C30.1345 113.545 30.0174 114.039 29.7832 114.471C29.5491 114.91 29.2088 115.254 28.7624 115.503C28.3234 115.751 27.7965 115.876 27.1818 115.876C26.3622 115.876 25.6817 115.682 25.1402 115.294C24.5987 114.913 24.2913 114.394 24.2182 113.735H25.4585C25.5536 114.05 25.7549 114.302 26.0622 114.493C26.3769 114.69 26.7501 114.789 27.1818 114.789C27.6867 114.789 28.0929 114.635 28.4002 114.328C28.7148 114.021 28.8722 113.574 28.8722 112.989V111.979C28.66 112.264 28.3709 112.506 28.005 112.704C27.6465 112.894 27.2367 112.989 26.7757 112.989C26.2488 112.989 25.7658 112.857 25.3268 112.594C24.8951 112.323 24.5511 111.95 24.295 111.474C24.0462 110.991 23.9218 110.446 23.9218 109.839C23.9218 109.231 24.0462 108.693 24.295 108.225C24.5511 107.757 24.8951 107.395 25.3268 107.138C25.7658 106.875 26.2488 106.743 26.7757 106.743ZM28.8722 109.861C28.8722 109.444 28.7844 109.081 28.6087 108.774C28.4404 108.467 28.2173 108.232 27.9392 108.071C27.6611 107.91 27.3611 107.83 27.0391 107.83C26.7171 107.83 26.4171 107.91 26.139 108.071C25.861 108.225 25.6341 108.456 25.4585 108.763C25.2902 109.063 25.206 109.422 25.206 109.839C25.206 110.256 25.2902 110.622 25.4585 110.936C25.6341 111.251 25.861 111.492 26.139 111.661C26.4244 111.822 26.7245 111.902 27.0391 111.902C27.3611 111.902 27.6611 111.822 27.9392 111.661C28.2173 111.5 28.4404 111.266 28.6087 110.958C28.7844 110.644 28.8722 110.278 28.8722 109.861ZM34.2148 106.743C34.6831 106.743 35.0966 106.838 35.4551 107.029C35.821 107.212 36.1064 107.442 36.3113 107.72V106.842H37.5736V112.989C37.5736 113.545 37.4565 114.039 37.2223 114.471C36.9882 114.91 36.6479 115.254 36.2015 115.503C35.7625 115.751 35.2356 115.876 34.6209 115.876C33.8013 115.876 33.1208 115.682 32.5793 115.294C32.0378 114.913 31.7305 114.394 31.6573 113.735H32.8976C32.9927 114.05 33.194 114.302 33.5013 114.493C33.816 114.69 34.1892 114.789 34.6209 114.789C35.1258 114.789 35.532 114.635 35.8393 114.328C36.154 114.021 36.3113 113.574 36.3113 112.989V111.979C36.0991 112.264 35.81 112.506 35.4441 112.704C35.0856 112.894 34.6758 112.989 34.2148 112.989C33.6879 112.989 33.205 112.857 32.7659 112.594C32.3342 112.323 31.9902 111.95 31.7341 111.474C31.4853 110.991 31.3609 110.446 31.3609 109.839C31.3609 109.231 31.4853 108.693 31.7341 108.225C31.9902 107.757 32.3342 107.395 32.7659 107.138C33.205 106.875 33.6879 106.743 34.2148 106.743ZM36.3113 109.861C36.3113 109.444 36.2235 109.081 36.0478 108.774C35.8795 108.467 35.6564 108.232 35.3783 108.071C35.1002 107.91 34.8002 107.83 34.4782 107.83C34.1562 107.83 33.8562 107.91 33.5782 108.071C33.3001 108.225 33.0732 108.456 32.8976 108.763C32.7293 109.063 32.6452 109.422 32.6452 109.839C32.6452 110.256 32.7293 110.622 32.8976 110.936C33.0732 111.251 33.3001 111.492 33.5782 111.661C33.8635 111.822 34.1636 111.902 34.4782 111.902C34.8002 111.902 35.1002 111.822 35.3783 111.661C35.6564 111.5 35.8795 111.266 36.0478 110.958C36.2235 110.644 36.3113 110.278 36.3113 109.861ZM44.6944 106.842V112.89H43.443V112.177C43.2455 112.425 42.9857 112.623 42.6637 112.769C42.3491 112.908 42.0125 112.978 41.6539 112.978C41.1782 112.978 40.7502 112.879 40.3696 112.682C39.9964 112.484 39.7001 112.191 39.4806 111.803C39.2683 111.416 39.1622 110.947 39.1622 110.398V106.842H40.4026V110.212C40.4026 110.753 40.538 111.17 40.8087 111.463C41.0795 111.749 41.449 111.891 41.9173 111.891C42.3857 111.891 42.7552 111.749 43.0259 111.463C43.304 111.17 43.443 110.753 43.443 110.212V106.842H44.6944ZM45.9283 109.839C45.9283 109.231 46.0527 108.693 46.3015 108.225C46.5576 107.757 46.9015 107.395 47.3332 107.138C47.7723 106.875 48.2553 106.743 48.7821 106.743C49.2578 106.743 49.6712 106.838 50.0225 107.029C50.381 107.212 50.6664 107.442 50.8786 107.72V106.842H52.1409V112.89H50.8786V111.99C50.6664 112.275 50.3774 112.513 50.0115 112.704C49.6456 112.894 49.2285 112.989 48.7602 112.989C48.2406 112.989 47.765 112.857 47.3332 112.594C46.9015 112.323 46.5576 111.95 46.3015 111.474C46.0527 110.991 45.9283 110.446 45.9283 109.839ZM50.8786 109.861C50.8786 109.444 50.7908 109.081 50.6152 108.774C50.4469 108.467 50.2237 108.232 49.9456 108.071C49.6676 107.91 49.3675 107.83 49.0456 107.83C48.7236 107.83 48.4236 107.91 48.1455 108.071C47.8674 108.225 47.6406 108.456 47.465 108.763C47.2967 109.063 47.2125 109.422 47.2125 109.839C47.2125 110.256 47.2967 110.622 47.465 110.936C47.6406 111.251 47.8674 111.492 48.1455 111.661C48.4309 111.822 48.7309 111.902 49.0456 111.902C49.3675 111.902 49.6676 111.822 49.9456 111.661C50.2237 111.5 50.4469 111.266 50.6152 110.958C50.7908 110.644 50.8786 110.278 50.8786 109.861ZM56.8359 106.743C57.3116 106.743 57.736 106.842 58.1092 107.04C58.4897 107.237 58.7861 107.53 58.9983 107.918C59.2105 108.306 59.3166 108.774 59.3166 109.323V112.89H58.0763V109.509C58.0763 108.968 57.9409 108.554 57.6701 108.269C57.3994 107.976 57.0298 107.83 56.5615 107.83C56.0932 107.83 55.72 107.976 55.4419 108.269C55.1712 108.554 55.0358 108.968 55.0358 109.509V112.89H53.7845V106.842H55.0358V107.534C55.2407 107.285 55.5005 107.091 55.8151 106.952C56.1371 106.813 56.4774 106.743 56.8359 106.743ZM67.9241 105.262V110.761C67.9241 111.441 67.7155 111.979 67.2984 112.374C66.8886 112.769 66.3471 112.967 65.6739 112.967C65.0007 112.967 64.4555 112.769 64.0384 112.374C63.6286 111.979 63.4238 111.441 63.4238 110.761H64.686C64.6934 111.097 64.7775 111.364 64.9385 111.562C65.1068 111.76 65.3519 111.858 65.6739 111.858C65.9959 111.858 66.241 111.76 66.4093 111.562C66.5777 111.357 66.6618 111.09 66.6618 110.761V105.262H67.9241ZM70.5963 106.041C70.3695 106.041 70.1792 105.964 70.0256 105.81C69.8719 105.657 69.7951 105.466 69.7951 105.24C69.7951 105.013 69.8719 104.822 70.0256 104.669C70.1792 104.515 70.3695 104.438 70.5963 104.438C70.8159 104.438 71.0025 104.515 71.1561 104.669C71.3098 104.822 71.3866 105.013 71.3866 105.24C71.3866 105.466 71.3098 105.657 71.1561 105.81C71.0025 105.964 70.8159 106.041 70.5963 106.041ZM71.211 106.842V112.89H69.9597V106.842H71.211ZM80.9764 106.842L79.0995 112.89H77.7823L76.5639 108.423L75.3455 112.89H74.0284L72.1404 106.842H73.4137L74.676 111.705L75.9602 106.842H77.2664L78.4958 111.683L79.7471 106.842H80.9764ZM81.4945 109.839C81.4945 109.231 81.6189 108.693 81.8677 108.225C82.1238 107.757 82.4677 107.395 82.8995 107.138C83.3385 106.875 83.8215 106.743 84.3483 106.743C84.824 106.743 85.2374 106.838 85.5887 107.029C85.9472 107.212 86.2326 107.442 86.4448 107.72V106.842H87.7071V112.89H86.4448V111.99C86.2326 112.275 85.9436 112.513 85.5777 112.704C85.2118 112.894 84.7947 112.989 84.3264 112.989C83.8068 112.989 83.3312 112.857 82.8995 112.594C82.4677 112.323 82.1238 111.95 81.8677 111.474C81.6189 110.991 81.4945 110.446 81.4945 109.839ZM86.4448 109.861C86.4448 109.444 86.357 109.081 86.1814 108.774C86.0131 108.467 85.7899 108.232 85.5119 108.071C85.2338 107.91 84.9338 107.83 84.6118 107.83C84.2898 107.83 83.9898 107.91 83.7117 108.071C83.4336 108.225 83.2068 108.456 83.0312 108.763C82.8629 109.063 82.7787 109.422 82.7787 109.839C82.7787 110.256 82.8629 110.622 83.0312 110.936C83.2068 111.251 83.4336 111.492 83.7117 111.661C83.9971 111.822 84.2971 111.902 84.6118 111.902C84.9338 111.902 85.2338 111.822 85.5119 111.661C85.7899 111.5 86.0131 111.266 86.1814 110.958C86.357 110.644 86.4448 110.278 86.4448 109.861Z" fill="black"/>
<rect x="337.435" y="4.30078" width="10.9294" height="234.896" rx="5.46472" transform="rotate(90 337.435 4.30078)" fill="#229799"/>
<path d="M342.232 11.724C342.305 12.2582 342.499 12.6716 342.814 12.9643C343.136 13.2571 343.568 13.4034 344.109 13.4034C344.848 13.4034 345.408 13.129 345.789 12.5802C346.176 12.0313 346.37 11.1423 346.37 9.9129L346.359 9.48482C346.25 9.96778 345.975 10.352 345.536 10.6373C345.104 10.9227 344.599 11.0654 344.021 11.0654C343.231 11.0654 342.609 10.8313 342.155 10.3629C341.702 9.8946 341.475 9.24699 341.475 8.4201C341.475 7.68834 341.683 7.08098 342.1 6.59801C342.525 6.10773 343.162 5.86259 344.01 5.86259C345.079 5.86259 345.81 6.20286 346.206 6.8834C346.608 7.56394 346.809 8.51157 346.809 9.7263C346.809 11.0654 346.601 12.0862 346.184 12.7887C345.767 13.4839 345.068 13.8315 344.087 13.8315C343.399 13.8315 342.858 13.6412 342.463 13.2607C342.068 12.8729 341.833 12.3606 341.76 11.724H342.232ZM344.076 10.6483C344.449 10.6483 344.804 10.5715 345.141 10.4178C345.478 10.2568 345.748 10.0227 345.953 9.71532C346.165 9.40798 346.271 9.03478 346.271 8.59573C346.271 8.17862 346.191 7.79445 346.03 7.4432C345.869 7.09195 345.617 6.81023 345.273 6.59801C344.936 6.3858 344.515 6.2797 344.01 6.2797C343.388 6.2797 342.887 6.47362 342.507 6.86145C342.133 7.24197 341.947 7.76152 341.947 8.4201C341.947 9.12991 342.133 9.67873 342.507 10.0666C342.88 10.4544 343.403 10.6483 344.076 10.6483ZM348.303 9.82509C348.303 8.55914 348.486 7.58589 348.852 6.90536C349.218 6.2175 349.891 5.87357 350.872 5.87357C351.845 5.87357 352.515 6.2175 352.881 6.90536C353.246 7.58589 353.429 8.55914 353.429 9.82509C353.429 11.1057 353.246 12.0935 352.881 12.7887C352.515 13.4766 351.845 13.8205 350.872 13.8205C349.891 13.8205 349.218 13.4766 348.852 12.7887C348.486 12.0935 348.303 11.1057 348.303 9.82509ZM352.946 9.82509C352.946 9.09332 352.892 8.47498 352.782 7.97007C352.679 7.46515 352.474 7.06634 352.167 6.77364C351.867 6.47362 351.435 6.3236 350.872 6.3236C350.308 6.3236 349.873 6.47362 349.566 6.77364C349.266 7.06634 349.061 7.46515 348.951 7.97007C348.849 8.47498 348.797 9.09332 348.797 9.82509C348.797 10.5715 348.849 11.2008 348.951 11.713C349.061 12.2179 349.266 12.6204 349.566 12.9204C349.873 13.2205 350.308 13.3705 350.872 13.3705C351.435 13.3705 351.867 13.2205 352.167 12.9204C352.474 12.6204 352.679 12.2179 352.782 11.713C352.892 11.2008 352.946 10.5715 352.946 9.82509ZM354.643 7.46515C354.643 7.0261 354.782 6.66753 355.06 6.38946C355.338 6.11139 355.689 5.97236 356.114 5.97236C356.538 5.97236 356.89 6.11139 357.168 6.38946C357.446 6.66753 357.585 7.0261 357.585 7.46515C357.585 7.90421 357.446 8.26277 357.168 8.54084C356.89 8.81891 356.538 8.95795 356.114 8.95795C355.689 8.95795 355.338 8.81891 355.06 8.54084C354.782 8.26277 354.643 7.90421 354.643 7.46515ZM360.482 6.06017L355.905 13.7656H355.4L359.967 6.06017H360.482ZM356.114 6.31263C355.806 6.31263 355.554 6.41873 355.356 6.63094C355.166 6.83584 355.071 7.11391 355.071 7.46515C355.071 7.80908 355.166 8.08715 355.356 8.29936C355.554 8.51157 355.806 8.61768 356.114 8.61768C356.421 8.61768 356.67 8.51157 356.86 8.29936C357.058 8.08715 357.157 7.80908 357.157 7.46515C357.157 7.11391 357.058 6.83584 356.86 6.63094C356.67 6.41873 356.421 6.31263 356.114 6.31263ZM358.309 12.3716C358.309 11.9326 358.448 11.574 358.726 11.2959C359.004 11.0179 359.356 10.8788 359.78 10.8788C360.204 10.8788 360.552 11.0179 360.823 11.2959C361.101 11.574 361.24 11.9326 361.24 12.3716C361.24 12.8107 361.101 13.1692 360.823 13.4473C360.552 13.7254 360.204 13.8644 359.78 13.8644C359.356 13.8644 359.004 13.7254 358.726 13.4473C358.448 13.1692 358.309 12.8107 358.309 12.3716ZM359.769 11.2191C359.462 11.2191 359.209 11.3252 359.012 11.5374C358.821 11.7423 358.726 12.0204 358.726 12.3716C358.726 12.7155 358.821 12.9936 359.012 13.2058C359.209 13.4107 359.462 13.5132 359.769 13.5132C360.084 13.5132 360.336 13.4107 360.526 13.2058C360.724 12.9936 360.823 12.7155 360.823 12.3716C360.823 12.0204 360.724 11.7423 360.526 11.5374C360.336 11.3252 360.084 11.2191 359.769 11.2191Z" fill="black"/>
<rect x="286.944" y="29.0586" width="10.9764" height="184.404" rx="5.48822" transform="rotate(90 286.944 29.0586)" fill="#48CFCB"/>
<path d="M297.848 31.1488L294.775 38.5469H294.27L297.387 31.1817H292.799V30.7536H297.848V31.1488ZM299.007 34.6063C299.007 33.3404 299.19 32.3671 299.556 31.6866C299.922 30.9987 300.595 30.6548 301.576 30.6548C302.549 30.6548 303.219 30.9987 303.584 31.6866C303.95 32.3671 304.133 33.3404 304.133 34.6063C304.133 35.8869 303.95 36.8748 303.584 37.57C303.219 38.2578 302.549 38.6018 301.576 38.6018C300.595 38.6018 299.922 38.2578 299.556 37.57C299.19 36.8748 299.007 35.8869 299.007 34.6063ZM303.65 34.6063C303.65 33.8746 303.595 33.2562 303.486 32.7513C303.383 32.2464 303.178 31.8476 302.871 31.5549C302.571 31.2549 302.139 31.1049 301.576 31.1049C301.012 31.1049 300.577 31.2549 300.27 31.5549C299.97 31.8476 299.765 32.2464 299.655 32.7513C299.552 33.2562 299.501 33.8746 299.501 34.6063C299.501 35.3527 299.552 35.982 299.655 36.4943C299.765 36.9992 299.97 37.4017 300.27 37.7017C300.577 38.0017 301.012 38.1517 301.576 38.1517C302.139 38.1517 302.571 38.0017 302.871 37.7017C303.178 37.4017 303.383 36.9992 303.486 36.4943C303.595 35.982 303.65 35.3527 303.65 34.6063ZM305.347 32.2464C305.347 31.8073 305.486 31.4488 305.764 31.1707C306.042 30.8926 306.393 30.7536 306.818 30.7536C307.242 30.7536 307.593 30.8926 307.871 31.1707C308.15 31.4488 308.289 31.8073 308.289 32.2464C308.289 32.6855 308.15 33.044 307.871 33.3221C307.593 33.6002 307.242 33.7392 306.818 33.7392C306.393 33.7392 306.042 33.6002 305.764 33.3221C305.486 33.044 305.347 32.6855 305.347 32.2464ZM311.186 30.8414L306.609 38.5469H306.104L310.67 30.8414H311.186ZM306.818 31.0939C306.51 31.0939 306.258 31.2 306.06 31.4122C305.87 31.6171 305.775 31.8952 305.775 32.2464C305.775 32.5903 305.87 32.8684 306.06 33.0806C306.258 33.2928 306.51 33.3989 306.818 33.3989C307.125 33.3989 307.374 33.2928 307.564 33.0806C307.762 32.8684 307.86 32.5903 307.86 32.2464C307.86 31.8952 307.762 31.6171 307.564 31.4122C307.374 31.2 307.125 31.0939 306.818 31.0939ZM309.013 37.1529C309.013 36.7138 309.152 36.3552 309.43 36.0772C309.708 35.7991 310.059 35.6601 310.484 35.6601C310.908 35.6601 311.256 35.7991 311.527 36.0772C311.805 36.3552 311.944 36.7138 311.944 37.1529C311.944 37.5919 311.805 37.9505 311.527 38.2286C311.256 38.5066 310.908 38.6457 310.484 38.6457C310.059 38.6457 309.708 38.5066 309.43 38.2286C309.152 37.9505 309.013 37.5919 309.013 37.1529ZM310.473 36.0003C310.166 36.0003 309.913 36.1064 309.715 36.3187C309.525 36.5236 309.43 36.8016 309.43 37.1529C309.43 37.4968 309.525 37.7749 309.715 37.9871C309.913 38.192 310.166 38.2944 310.473 38.2944C310.788 38.2944 311.04 38.192 311.23 37.9871C311.428 37.7749 311.527 37.4968 311.527 37.1529C311.527 36.8016 311.428 36.5236 311.23 36.3187C311.04 36.1064 310.788 36.0003 310.473 36.0003Z" fill="black"/>
<rect x="238.647" y="53.8398" width="10.9764" height="136.108" rx="5.48822" transform="rotate(90 238.647 53.8398)" fill="#48CFCB"/>
<path d="M249.885 55.9629H245.67V59.1132C245.867 58.8351 246.156 58.6083 246.537 58.4326C246.917 58.2497 247.331 58.1582 247.777 58.1582C248.37 58.1582 248.853 58.279 249.226 58.5204C249.607 58.7546 249.881 59.062 250.049 59.4425C250.218 59.823 250.302 60.2364 250.302 60.6828C250.302 61.1804 250.21 61.6341 250.027 62.0439C249.844 62.4464 249.555 62.772 249.16 63.0208C248.772 63.2623 248.282 63.383 247.689 63.383C246.972 63.383 246.38 63.1891 245.911 62.8013C245.45 62.4061 245.168 61.8756 245.066 61.2097H245.549C245.659 61.7731 245.904 62.2049 246.284 62.5049C246.665 62.7976 247.133 62.9439 247.689 62.9439C248.399 62.9439 248.933 62.7391 249.292 62.3293C249.651 61.9122 249.83 61.367 249.83 60.6938C249.83 60.0352 249.647 59.5193 249.281 59.1461C248.922 58.7729 248.407 58.5863 247.733 58.5863C247.272 58.5863 246.859 58.6888 246.493 58.8936C246.134 59.0985 245.856 59.3803 245.659 59.7388H245.198V55.5239H249.885V55.9629ZM256.531 55.9629H252.316V59.1132C252.513 58.8351 252.802 58.6083 253.183 58.4326C253.563 58.2497 253.977 58.1582 254.423 58.1582C255.016 58.1582 255.499 58.279 255.872 58.5204C256.253 58.7546 256.527 59.062 256.695 59.4425C256.864 59.823 256.948 60.2364 256.948 60.6828C256.948 61.1804 256.856 61.6341 256.673 62.0439C256.49 62.4464 256.201 62.772 255.806 63.0208C255.418 63.2623 254.928 63.383 254.335 63.383C253.618 63.383 253.025 63.1891 252.557 62.8013C252.096 62.4061 251.814 61.8756 251.712 61.2097H252.195C252.305 61.7731 252.55 62.2049 252.93 62.5049C253.311 62.7976 253.779 62.9439 254.335 62.9439C255.045 62.9439 255.579 62.7391 255.938 62.3293C256.296 61.9122 256.476 61.367 256.476 60.6938C256.476 60.0352 256.293 59.5193 255.927 59.1461C255.568 58.7729 255.052 58.5863 254.379 58.5863C253.918 58.5863 253.505 58.6888 253.139 58.8936C252.78 59.0985 252.502 59.3803 252.305 59.7388H251.844V55.5239H256.531V55.9629ZM258.05 57.0277C258.05 56.5886 258.19 56.23 258.468 55.952C258.746 55.6739 259.097 55.5349 259.521 55.5349C259.946 55.5349 260.297 55.6739 260.575 55.952C260.853 56.23 260.992 56.5886 260.992 57.0277C260.992 57.4667 260.853 57.8253 260.575 58.1033C260.297 58.3814 259.946 58.5204 259.521 58.5204C259.097 58.5204 258.746 58.3814 258.468 58.1033C258.19 57.8253 258.05 57.4667 258.05 57.0277ZM263.89 55.6227L259.313 63.3281H258.808L263.374 55.6227H263.89ZM259.521 55.8751C259.214 55.8751 258.962 55.9812 258.764 56.1934C258.574 56.3983 258.479 56.6764 258.479 57.0277C258.479 57.3716 258.574 57.6497 258.764 57.8619C258.962 58.0741 259.214 58.1802 259.521 58.1802C259.829 58.1802 260.077 58.0741 260.268 57.8619C260.465 57.6497 260.564 57.3716 260.564 57.0277C260.564 56.6764 260.465 56.3983 260.268 56.1934C260.077 55.9812 259.829 55.8751 259.521 55.8751ZM261.717 61.9341C261.717 61.4951 261.856 61.1365 262.134 60.8584C262.412 60.5804 262.763 60.4413 263.187 60.4413C263.612 60.4413 263.959 60.5804 264.23 60.8584C264.508 61.1365 264.647 61.4951 264.647 61.9341C264.647 62.3732 264.508 62.7317 264.23 63.0098C263.959 63.2879 263.612 63.4269 263.187 63.4269C262.763 63.4269 262.412 63.2879 262.134 63.0098C261.856 62.7317 261.717 62.3732 261.717 61.9341ZM263.176 60.7816C262.869 60.7816 262.617 60.8877 262.419 61.0999C262.229 61.3048 262.134 61.5829 262.134 61.9341C262.134 62.278 262.229 62.5561 262.419 62.7683C262.617 62.9732 262.869 63.0757 263.176 63.0757C263.491 63.0757 263.744 62.9732 263.934 62.7683C264.131 62.5561 264.23 62.278 264.23 61.9341C264.23 61.5829 264.131 61.3048 263.934 61.0999C263.744 60.8877 263.491 60.7816 263.176 60.7816Z" fill="black"/>
<rect x="195.839" y="78.6206" width="10.9764" height="93.2997" rx="5.48822" transform="rotate(90 195.839 78.6206)" fill="#48CFCB"/>
<path d="M200.86 86.1331V85.749L205.042 80.3376H205.601V85.705H206.853V86.1331H205.601V88.1089H205.118V86.1331H200.86ZM205.129 80.9303L201.441 85.705H205.129V80.9303ZM207.805 84.1683C207.805 82.9024 207.988 81.9292 208.354 81.2486C208.72 80.5608 209.393 80.2168 210.374 80.2168C211.347 80.2168 212.016 80.5608 212.382 81.2486C212.748 81.9292 212.931 82.9024 212.931 84.1683C212.931 85.4489 212.748 86.4368 212.382 87.132C212.016 87.8198 211.347 88.1638 210.374 88.1638C209.393 88.1638 208.72 87.8198 208.354 87.132C207.988 86.4368 207.805 85.4489 207.805 84.1683ZM212.448 84.1683C212.448 83.4366 212.393 82.8182 212.284 82.3133C212.181 81.8084 211.976 81.4096 211.669 81.1169C211.369 80.8169 210.937 80.6669 210.374 80.6669C209.81 80.6669 209.375 80.8169 209.067 81.1169C208.767 81.4096 208.563 81.8084 208.453 82.3133C208.35 82.8182 208.299 83.4366 208.299 84.1683C208.299 84.9147 208.35 85.5441 208.453 86.0563C208.563 86.5612 208.767 86.9637 209.067 87.2637C209.375 87.5637 209.81 87.7137 210.374 87.7137C210.937 87.7137 211.369 87.5637 211.669 87.2637C211.976 86.9637 212.181 86.5612 212.284 86.0563C212.393 85.5441 212.448 84.9147 212.448 84.1683ZM214.145 81.8084C214.145 81.3694 214.284 81.0108 214.562 80.7327C214.84 80.4547 215.191 80.3156 215.616 80.3156C216.04 80.3156 216.391 80.4547 216.669 80.7327C216.947 81.0108 217.086 81.3694 217.086 81.8084C217.086 82.2475 216.947 82.606 216.669 82.8841C216.391 83.1622 216.04 83.3012 215.616 83.3012C215.191 83.3012 214.84 83.1622 214.562 82.8841C214.284 82.606 214.145 82.2475 214.145 81.8084ZM219.984 80.4034L215.407 88.1089H214.902L219.468 80.4034H219.984ZM215.616 80.6559C215.308 80.6559 215.056 80.762 214.858 80.9742C214.668 81.1791 214.573 81.4572 214.573 81.8084C214.573 82.1523 214.668 82.4304 214.858 82.6426C215.056 82.8548 215.308 82.9609 215.616 82.9609C215.923 82.9609 216.172 82.8548 216.362 82.6426C216.56 82.4304 216.658 82.1523 216.658 81.8084C216.658 81.4572 216.56 81.1791 216.362 80.9742C216.172 80.762 215.923 80.6559 215.616 80.6559ZM217.811 86.7149C217.811 86.2758 217.95 85.9173 218.228 85.6392C218.506 85.3611 218.857 85.2221 219.282 85.2221C219.706 85.2221 220.054 85.3611 220.324 85.6392C220.603 85.9173 220.742 86.2758 220.742 86.7149C220.742 87.1539 220.603 87.5125 220.324 87.7906C220.054 88.0686 219.706 88.2077 219.282 88.2077C218.857 88.2077 218.506 88.0686 218.228 87.7906C217.95 87.5125 217.811 87.1539 217.811 86.7149ZM219.271 85.5624C218.963 85.5624 218.711 85.6685 218.513 85.8807C218.323 86.0856 218.228 86.3636 218.228 86.7149C218.228 87.0588 218.323 87.3369 218.513 87.5491C218.711 87.754 218.963 87.8564 219.271 87.8564C219.585 87.8564 219.838 87.754 220.028 87.5491C220.226 87.3369 220.324 87.0588 220.324 86.7149C220.324 86.3636 220.226 86.0856 220.028 85.8807C219.838 85.6685 219.585 85.5624 219.271 85.5624Z" fill="black"/>
<rect x="168.398" y="103.402" width="10.9764" height="65.8586" rx="5.48822" transform="rotate(90 168.398 103.402)" fill="#54D6D2"/>
<path d="M173.964 107.128C174.03 106.462 174.286 105.938 174.732 105.558C175.186 105.177 175.783 104.987 176.522 104.987C176.997 104.987 177.403 105.075 177.74 105.251C178.077 105.419 178.333 105.649 178.508 105.942C178.684 106.235 178.772 106.568 178.772 106.941C178.772 107.409 178.629 107.815 178.344 108.159C178.058 108.496 177.623 108.697 177.037 108.763V108.829C177.601 108.917 178.055 109.133 178.399 109.476C178.743 109.82 178.914 110.281 178.914 110.859C178.914 111.474 178.71 111.979 178.3 112.374C177.897 112.762 177.305 112.956 176.522 112.956C175.783 112.956 175.172 112.758 174.689 112.363C174.213 111.968 173.928 111.408 173.832 110.684H174.315C174.403 111.225 174.637 111.668 175.018 112.012C175.398 112.349 175.9 112.517 176.522 112.517C177.151 112.517 177.627 112.36 177.949 112.045C178.278 111.73 178.442 111.324 178.442 110.827C178.442 110.227 178.212 109.776 177.751 109.476C177.297 109.176 176.646 109.026 175.797 109.026H175.589V108.598H175.808C177.462 108.591 178.289 108.05 178.289 106.974C178.289 106.506 178.131 106.129 177.817 105.843C177.509 105.558 177.074 105.415 176.511 105.415C175.962 105.415 175.497 105.562 175.117 105.854C174.743 106.14 174.52 106.564 174.447 107.128H173.964ZM180.364 108.95C180.364 107.684 180.547 106.71 180.913 106.03C181.279 105.342 181.952 104.998 182.933 104.998C183.906 104.998 184.576 105.342 184.941 106.03C185.307 106.71 185.49 107.684 185.49 108.95C185.49 110.23 185.307 111.218 184.941 111.913C184.576 112.601 183.906 112.945 182.933 112.945C181.952 112.945 181.279 112.601 180.913 111.913C180.547 111.218 180.364 110.23 180.364 108.95ZM185.007 108.95C185.007 108.218 184.952 107.599 184.843 107.095C184.74 106.59 184.535 106.191 184.228 105.898C183.928 105.598 183.496 105.448 182.933 105.448C182.369 105.448 181.934 105.598 181.627 105.898C181.326 106.191 181.122 106.59 181.012 107.095C180.909 107.599 180.858 108.218 180.858 108.95C180.858 109.696 180.909 110.325 181.012 110.838C181.122 111.342 181.326 111.745 181.627 112.045C181.934 112.345 182.369 112.495 182.933 112.495C183.496 112.495 183.928 112.345 184.228 112.045C184.535 111.745 184.74 111.342 184.843 110.838C184.952 110.325 185.007 109.696 185.007 108.95ZM186.704 106.59C186.704 106.151 186.843 105.792 187.121 105.514C187.399 105.236 187.75 105.097 188.175 105.097C188.599 105.097 188.95 105.236 189.228 105.514C189.506 105.792 189.645 106.151 189.645 106.59C189.645 107.029 189.506 107.387 189.228 107.665C188.95 107.943 188.599 108.082 188.175 108.082C187.75 108.082 187.399 107.943 187.121 107.665C186.843 107.387 186.704 107.029 186.704 106.59ZM192.543 105.185L187.966 112.89H187.461L192.027 105.185H192.543ZM188.175 105.437C187.867 105.437 187.615 105.543 187.417 105.755C187.227 105.96 187.132 106.238 187.132 106.59C187.132 106.934 187.227 107.212 187.417 107.424C187.615 107.636 187.867 107.742 188.175 107.742C188.482 107.742 188.731 107.636 188.921 107.424C189.119 107.212 189.217 106.934 189.217 106.59C189.217 106.238 189.119 105.96 188.921 105.755C188.731 105.543 188.482 105.437 188.175 105.437ZM190.37 111.496C190.37 111.057 190.509 110.699 190.787 110.42C191.065 110.142 191.416 110.003 191.841 110.003C192.265 110.003 192.613 110.142 192.884 110.42C193.162 110.699 193.301 111.057 193.301 111.496C193.301 111.935 193.162 112.294 192.884 112.572C192.613 112.85 192.265 112.989 191.841 112.989C191.416 112.989 191.065 112.85 190.787 112.572C190.509 112.294 190.37 111.935 190.37 111.496ZM191.83 110.344C191.522 110.344 191.27 110.45 191.072 110.662C190.882 110.867 190.787 111.145 190.787 111.496C190.787 111.84 190.882 112.118 191.072 112.33C191.27 112.535 191.522 112.638 191.83 112.638C192.144 112.638 192.397 112.535 192.587 112.33C192.785 112.118 192.884 111.84 192.884 111.496C192.884 111.145 192.785 110.867 192.587 110.662C192.397 110.45 192.144 110.344 191.83 110.344Z" fill="black"/>
<path d="M103.902 142.021C103.902 140.755 104.085 139.782 104.451 139.101C104.817 138.413 105.49 138.069 106.471 138.069C107.444 138.069 108.113 138.413 108.479 139.101C108.845 139.782 109.028 140.755 109.028 142.021C109.028 143.301 108.845 144.289 108.479 144.985C108.113 145.672 107.444 146.016 106.471 146.016C105.49 146.016 104.817 145.672 104.451 144.985C104.085 144.289 103.902 143.301 103.902 142.021ZM108.545 142.021C108.545 141.289 108.49 140.671 108.381 140.166C108.278 139.661 108.073 139.262 107.766 138.969C107.466 138.669 107.034 138.519 106.471 138.519C105.907 138.519 105.472 138.669 105.164 138.969C104.864 139.262 104.66 139.661 104.55 140.166C104.447 140.671 104.396 141.289 104.396 142.021C104.396 142.767 104.447 143.397 104.55 143.909C104.66 144.414 104.864 144.816 105.164 145.116C105.472 145.416 105.907 145.566 106.471 145.566C107.034 145.566 107.466 145.416 107.766 145.116C108.073 144.816 108.278 144.414 108.381 143.909C108.49 143.397 108.545 142.767 108.545 142.021Z" fill="black"/>
<path d="M124.848 138.607V138.157H126.472V145.961H125.979V138.607H124.848ZM128.171 142.021C128.171 140.755 128.354 139.782 128.72 139.101C129.086 138.413 129.759 138.069 130.74 138.069C131.713 138.069 132.383 138.413 132.749 139.101C133.115 139.782 133.297 140.755 133.297 142.021C133.297 143.301 133.115 144.289 132.749 144.985C132.383 145.672 131.713 146.016 130.74 146.016C129.759 146.016 129.086 145.672 128.72 144.985C128.354 144.289 128.171 143.301 128.171 142.021ZM132.815 142.021C132.815 141.289 132.76 140.671 132.65 140.166C132.547 139.661 132.343 139.262 132.035 138.969C131.735 138.669 131.303 138.519 130.74 138.519C130.177 138.519 129.741 138.669 129.434 138.969C129.134 139.262 128.929 139.661 128.819 140.166C128.717 140.671 128.665 141.289 128.665 142.021C128.665 142.767 128.717 143.397 128.819 143.909C128.929 144.414 129.134 144.816 129.434 145.116C129.741 145.416 130.177 145.566 130.74 145.566C131.303 145.566 131.735 145.416 132.035 145.116C132.343 144.816 132.547 144.414 132.65 143.909C132.76 143.397 132.815 142.767 132.815 142.021Z" fill="black"/>
<path d="M148.994 145.599C150.37 144.648 151.453 143.73 152.243 142.844C153.041 141.959 153.44 141.11 153.44 140.298C153.44 139.763 153.297 139.328 153.012 138.991C152.734 138.655 152.276 138.486 151.64 138.486C151.003 138.486 150.516 138.68 150.18 139.068C149.843 139.456 149.653 139.968 149.609 140.605H149.126C149.177 139.8 149.426 139.174 149.873 138.728C150.319 138.282 150.908 138.058 151.64 138.058C152.306 138.058 152.851 138.245 153.275 138.618C153.707 138.991 153.923 139.548 153.923 140.287C153.923 141.201 153.502 142.123 152.661 143.053C151.826 143.982 150.871 144.802 149.796 145.511H154.175V145.928H148.994V145.599ZM155.441 142.021C155.441 140.755 155.624 139.782 155.99 139.101C156.356 138.413 157.029 138.069 158.009 138.069C158.983 138.069 159.652 138.413 160.018 139.101C160.384 139.782 160.567 140.755 160.567 142.021C160.567 143.301 160.384 144.289 160.018 144.985C159.652 145.672 158.983 146.016 158.009 146.016C157.029 146.016 156.356 145.672 155.99 144.985C155.624 144.289 155.441 143.301 155.441 142.021ZM160.084 142.021C160.084 141.289 160.029 140.671 159.919 140.166C159.817 139.661 159.612 139.262 159.305 138.969C159.005 138.669 158.573 138.519 158.009 138.519C157.446 138.519 157.011 138.669 156.703 138.969C156.403 139.262 156.198 139.661 156.089 140.166C155.986 140.671 155.935 141.289 155.935 142.021C155.935 142.767 155.986 143.397 156.089 143.909C156.198 144.414 156.403 144.816 156.703 145.116C157.011 145.416 157.446 145.566 158.009 145.566C158.573 145.566 159.005 145.416 159.305 145.116C159.612 144.816 159.817 144.414 159.919 143.909C160.029 143.397 160.084 142.767 160.084 142.021Z" fill="black"/>
<path d="M176.31 140.199C176.376 139.533 176.632 139.01 177.079 138.629C177.532 138.249 178.129 138.058 178.868 138.058C179.343 138.058 179.749 138.146 180.086 138.322C180.423 138.49 180.679 138.721 180.854 139.013C181.03 139.306 181.118 139.639 181.118 140.012C181.118 140.481 180.975 140.887 180.69 141.231C180.404 141.567 179.969 141.768 179.384 141.834V141.9C179.947 141.988 180.401 142.204 180.745 142.548C181.089 142.892 181.261 143.353 181.261 143.931C181.261 144.545 181.056 145.05 180.646 145.446C180.243 145.833 179.651 146.027 178.868 146.027C178.129 146.027 177.518 145.83 177.035 145.435C176.559 145.039 176.274 144.48 176.178 143.755H176.661C176.749 144.297 176.983 144.739 177.364 145.083C177.744 145.42 178.246 145.588 178.868 145.588C179.497 145.588 179.973 145.431 180.295 145.116C180.624 144.802 180.789 144.395 180.789 143.898C180.789 143.298 180.558 142.848 180.097 142.548C179.643 142.248 178.992 142.098 178.143 142.098H177.935V141.67H178.154C179.808 141.662 180.635 141.121 180.635 140.045C180.635 139.577 180.478 139.2 180.163 138.915C179.856 138.629 179.42 138.486 178.857 138.486C178.308 138.486 177.843 138.633 177.463 138.926C177.09 139.211 176.866 139.635 176.793 140.199H176.31ZM182.71 142.021C182.71 140.755 182.893 139.782 183.259 139.101C183.625 138.413 184.298 138.069 185.279 138.069C186.252 138.069 186.922 138.413 187.287 139.101C187.653 139.782 187.836 140.755 187.836 142.021C187.836 143.301 187.653 144.289 187.287 144.985C186.922 145.672 186.252 146.016 185.279 146.016C184.298 146.016 183.625 145.672 183.259 144.985C182.893 144.289 182.71 143.301 182.71 142.021ZM187.353 142.021C187.353 141.289 187.298 140.671 187.189 140.166C187.086 139.661 186.881 139.262 186.574 138.969C186.274 138.669 185.842 138.519 185.279 138.519C184.715 138.519 184.28 138.669 183.973 138.969C183.673 139.262 183.468 139.661 183.358 140.166C183.255 140.671 183.204 141.289 183.204 142.021C183.204 142.767 183.255 143.397 183.358 143.909C183.468 144.414 183.673 144.816 183.973 145.116C184.28 145.416 184.715 145.566 185.279 145.566C185.842 145.566 186.274 145.416 186.574 145.116C186.881 144.816 187.086 144.414 187.189 143.909C187.298 143.397 187.353 142.767 187.353 142.021Z" fill="black"/>
<path d="M204.034 143.986V143.601L208.216 138.19H208.776V143.558H210.027V143.986H208.776V145.961H208.293V143.986H204.034ZM208.304 138.783L204.616 143.558H208.304V138.783ZM210.98 142.021C210.98 140.755 211.163 139.782 211.528 139.101C211.894 138.413 212.568 138.069 213.548 138.069C214.521 138.069 215.191 138.413 215.557 139.101C215.923 139.782 216.106 140.755 216.106 142.021C216.106 143.301 215.923 144.289 215.557 144.985C215.191 145.672 214.521 146.016 213.548 146.016C212.568 146.016 211.894 145.672 211.528 144.985C211.163 144.289 210.98 143.301 210.98 142.021ZM215.623 142.021C215.623 141.289 215.568 140.671 215.458 140.166C215.356 139.661 215.151 139.262 214.843 138.969C214.543 138.669 214.112 138.519 213.548 138.519C212.985 138.519 212.549 138.669 212.242 138.969C211.942 139.262 211.737 139.661 211.627 140.166C211.525 140.671 211.474 141.289 211.474 142.021C211.474 142.767 211.525 143.397 211.627 143.909C211.737 144.414 211.942 144.816 212.242 145.116C212.549 145.416 212.985 145.566 213.548 145.566C214.112 145.566 214.543 145.416 214.843 145.116C215.151 144.816 215.356 144.414 215.458 143.909C215.568 143.397 215.623 142.767 215.623 142.021Z" fill="black"/>
<path d="M237.466 138.596H233.251V141.746C233.448 141.468 233.737 141.242 234.118 141.066C234.498 140.883 234.912 140.792 235.358 140.792C235.951 140.792 236.434 140.912 236.807 141.154C237.188 141.388 237.462 141.695 237.63 142.076C237.799 142.456 237.883 142.87 237.883 143.316C237.883 143.814 237.791 144.267 237.608 144.677C237.426 145.08 237.136 145.405 236.741 145.654C236.354 145.896 235.863 146.016 235.27 146.016C234.553 146.016 233.961 145.822 233.492 145.435C233.031 145.039 232.75 144.509 232.647 143.843H233.13C233.24 144.406 233.485 144.838 233.866 145.138C234.246 145.431 234.714 145.577 235.27 145.577C235.98 145.577 236.514 145.372 236.873 144.963C237.232 144.545 237.411 144 237.411 143.327C237.411 142.668 237.228 142.153 236.862 141.779C236.504 141.406 235.988 141.22 235.314 141.22C234.853 141.22 234.44 141.322 234.074 141.527C233.716 141.732 233.437 142.014 233.24 142.372H232.779V138.157H237.466V138.596ZM239.249 142.021C239.249 140.755 239.432 139.782 239.798 139.101C240.164 138.413 240.837 138.069 241.818 138.069C242.791 138.069 243.46 138.413 243.826 139.101C244.192 139.782 244.375 140.755 244.375 142.021C244.375 143.301 244.192 144.289 243.826 144.985C243.46 145.672 242.791 146.016 241.818 146.016C240.837 146.016 240.164 145.672 239.798 144.985C239.432 144.289 239.249 143.301 239.249 142.021ZM243.892 142.021C243.892 141.289 243.837 140.671 243.727 140.166C243.625 139.661 243.42 139.262 243.113 138.969C242.813 138.669 242.381 138.519 241.818 138.519C241.254 138.519 240.819 138.669 240.511 138.969C240.211 139.262 240.006 139.661 239.897 140.166C239.794 140.671 239.743 141.289 239.743 142.021C239.743 142.767 239.794 143.397 239.897 143.909C240.006 144.414 240.211 144.816 240.511 145.116C240.819 145.416 241.254 145.566 241.818 145.566C242.381 145.566 242.813 145.416 243.113 145.116C243.42 144.816 243.625 144.414 243.727 143.909C243.837 143.397 243.892 142.767 243.892 142.021Z" fill="black"/>
<path d="M265.355 140.122C265.275 139.595 265.081 139.189 264.773 138.904C264.466 138.611 264.045 138.465 263.511 138.465C262.757 138.465 262.179 138.743 261.777 139.299C261.382 139.855 261.184 140.755 261.184 141.999L261.195 142.427C261.312 141.922 261.594 141.523 262.04 141.231C262.487 140.931 263.006 140.781 263.599 140.781C264.389 140.781 265.007 141.018 265.454 141.494C265.9 141.97 266.123 142.621 266.123 143.448C266.123 143.916 266.036 144.344 265.86 144.732C265.684 145.12 265.406 145.431 265.026 145.665C264.645 145.899 264.17 146.016 263.599 146.016C262.501 146.016 261.751 145.672 261.349 144.985C260.946 144.289 260.745 143.334 260.745 142.12C260.745 140.81 260.961 139.804 261.393 139.101C261.832 138.399 262.538 138.047 263.511 138.047C264.192 138.047 264.726 138.238 265.114 138.618C265.509 138.991 265.747 139.493 265.827 140.122H265.355ZM263.522 141.209C263.149 141.209 262.79 141.285 262.446 141.439C262.102 141.593 261.821 141.827 261.601 142.142C261.389 142.449 261.283 142.826 261.283 143.272C261.283 143.682 261.363 144.066 261.524 144.425C261.693 144.776 261.949 145.061 262.293 145.281C262.637 145.493 263.065 145.599 263.577 145.599C264.206 145.599 264.707 145.409 265.081 145.028C265.454 144.648 265.64 144.125 265.64 143.459C265.64 142.742 265.454 142.189 265.081 141.801C264.707 141.406 264.188 141.209 263.522 141.209ZM267.518 142.021C267.518 140.755 267.701 139.782 268.067 139.101C268.433 138.413 269.106 138.069 270.087 138.069C271.06 138.069 271.73 138.413 272.096 139.101C272.461 139.782 272.644 140.755 272.644 142.021C272.644 143.301 272.461 144.289 272.096 144.985C271.73 145.672 271.06 146.016 270.087 146.016C269.106 146.016 268.433 145.672 268.067 144.985C267.701 144.289 267.518 143.301 267.518 142.021ZM272.161 142.021C272.161 141.289 272.107 140.671 271.997 140.166C271.894 139.661 271.689 139.262 271.382 138.969C271.082 138.669 270.65 138.519 270.087 138.519C269.523 138.519 269.088 138.669 268.781 138.969C268.481 139.262 268.276 139.661 268.166 140.166C268.064 140.671 268.012 141.289 268.012 142.021C268.012 142.767 268.064 143.397 268.166 143.909C268.276 144.414 268.481 144.816 268.781 145.116C269.088 145.416 269.523 145.566 270.087 145.566C270.65 145.566 271.082 145.416 271.382 145.116C271.689 144.816 271.894 144.414 271.997 143.909C272.107 143.397 272.161 142.767 272.161 142.021Z" fill="black"/>
<path d="M293.629 138.563L290.555 145.961H290.05L293.168 138.596H288.579V138.168H293.629V138.563ZM294.788 142.021C294.788 140.755 294.971 139.782 295.337 139.101C295.702 138.413 296.376 138.069 297.356 138.069C298.329 138.069 298.999 138.413 299.365 139.101C299.731 139.782 299.914 140.755 299.914 142.021C299.914 143.301 299.731 144.289 299.365 144.985C298.999 145.672 298.329 146.016 297.356 146.016C296.376 146.016 295.702 145.672 295.337 144.985C294.971 144.289 294.788 143.301 294.788 142.021ZM299.431 142.021C299.431 141.289 299.376 140.671 299.266 140.166C299.164 139.661 298.959 139.262 298.651 138.969C298.351 138.669 297.92 138.519 297.356 138.519C296.793 138.519 296.357 138.669 296.05 138.969C295.75 139.262 295.545 139.661 295.435 140.166C295.333 140.671 295.282 141.289 295.282 142.021C295.282 142.767 295.333 143.397 295.435 143.909C295.545 144.414 295.75 144.816 296.05 145.116C296.357 145.416 296.793 145.566 297.356 145.566C297.92 145.566 298.351 145.416 298.651 145.116C298.959 144.816 299.164 144.414 299.266 143.909C299.376 143.397 299.431 142.767 299.431 142.021Z" fill="black"/>
<path d="M317.929 141.933C317.416 141.801 317.032 141.575 316.776 141.253C316.52 140.931 316.392 140.543 316.392 140.089C316.392 139.489 316.615 139.002 317.062 138.629C317.515 138.256 318.141 138.069 318.938 138.069C319.736 138.069 320.358 138.256 320.804 138.629C321.258 139.002 321.485 139.489 321.485 140.089C321.485 140.535 321.357 140.923 321.101 141.253C320.845 141.575 320.461 141.801 319.948 141.933C320.497 142.05 320.925 142.284 321.233 142.636C321.547 142.987 321.705 143.426 321.705 143.953C321.705 144.648 321.456 145.2 320.958 145.61C320.468 146.013 319.795 146.214 318.938 146.214C318.082 146.214 317.409 146.013 316.919 145.61C316.429 145.2 316.183 144.648 316.183 143.953C316.183 143.426 316.337 142.987 316.644 142.636C316.959 142.277 317.387 142.043 317.929 141.933ZM321.002 140.122C321.002 139.602 320.815 139.2 320.442 138.915C320.069 138.629 319.568 138.486 318.938 138.486C318.309 138.486 317.808 138.629 317.435 138.915C317.062 139.193 316.875 139.599 316.875 140.133C316.875 140.638 317.062 141.037 317.435 141.329C317.808 141.615 318.309 141.757 318.938 141.757C319.568 141.757 320.069 141.611 320.442 141.318C320.815 141.026 321.002 140.627 321.002 140.122ZM318.938 142.153C318.273 142.153 317.724 142.299 317.292 142.592C316.868 142.884 316.655 143.334 316.655 143.942C316.655 144.52 316.86 144.974 317.27 145.303C317.687 145.632 318.243 145.797 318.938 145.797C319.634 145.797 320.186 145.632 320.596 145.303C321.006 144.974 321.211 144.52 321.211 143.942C321.211 143.342 320.998 142.895 320.574 142.603C320.15 142.303 319.604 142.153 318.938 142.153ZM323.057 142.021C323.057 140.755 323.24 139.782 323.606 139.101C323.972 138.413 324.645 138.069 325.625 138.069C326.599 138.069 327.268 138.413 327.634 139.101C328 139.782 328.183 140.755 328.183 142.021C328.183 143.301 328 144.289 327.634 144.985C327.268 145.672 326.599 146.016 325.625 146.016C324.645 146.016 323.972 145.672 323.606 144.985C323.24 144.289 323.057 143.301 323.057 142.021ZM327.7 142.021C327.7 141.289 327.645 140.671 327.535 140.166C327.433 139.661 327.228 139.262 326.921 138.969C326.621 138.669 326.189 138.519 325.625 138.519C325.062 138.519 324.627 138.669 324.319 138.969C324.019 139.262 323.814 139.661 323.705 140.166C323.602 140.671 323.551 141.289 323.551 142.021C323.551 142.767 323.602 143.397 323.705 143.909C323.814 144.414 324.019 144.816 324.319 145.116C324.627 145.416 325.062 145.566 325.625 145.566C326.189 145.566 326.621 145.416 326.921 145.116C327.228 144.816 327.433 144.414 327.535 143.909C327.645 143.397 327.7 142.767 327.7 142.021Z" fill="black"/>
<path d="M345.255 143.92C345.328 144.454 345.522 144.867 345.837 145.16C346.159 145.453 346.591 145.599 347.132 145.599C347.871 145.599 348.431 145.325 348.812 144.776C349.199 144.227 349.393 143.338 349.393 142.109L349.382 141.681C349.273 142.164 348.998 142.548 348.559 142.833C348.127 143.119 347.623 143.261 347.044 143.261C346.254 143.261 345.632 143.027 345.178 142.559C344.725 142.09 344.498 141.443 344.498 140.616C344.498 139.884 344.706 139.277 345.124 138.794C345.548 138.304 346.185 138.058 347.033 138.058C348.102 138.058 348.834 138.399 349.229 139.079C349.631 139.76 349.832 140.707 349.832 141.922C349.832 143.261 349.624 144.282 349.207 144.985C348.79 145.68 348.091 146.027 347.11 146.027C346.422 146.027 345.881 145.837 345.486 145.457C345.091 145.069 344.856 144.556 344.783 143.92H345.255ZM347.099 142.844C347.472 142.844 347.827 142.767 348.164 142.614C348.501 142.453 348.771 142.218 348.976 141.911C349.188 141.604 349.295 141.231 349.295 140.792C349.295 140.374 349.214 139.99 349.053 139.639C348.892 139.288 348.64 139.006 348.296 138.794C347.959 138.582 347.538 138.475 347.033 138.475C346.411 138.475 345.91 138.669 345.53 139.057C345.156 139.438 344.97 139.957 344.97 140.616C344.97 141.326 345.156 141.875 345.53 142.262C345.903 142.65 346.426 142.844 347.099 142.844ZM351.327 142.021C351.327 140.755 351.509 139.782 351.875 139.101C352.241 138.413 352.914 138.069 353.895 138.069C354.868 138.069 355.538 138.413 355.904 139.101C356.27 139.782 356.452 140.755 356.452 142.021C356.452 143.301 356.27 144.289 355.904 144.985C355.538 145.672 354.868 146.016 353.895 146.016C352.914 146.016 352.241 145.672 351.875 144.985C351.509 144.289 351.327 143.301 351.327 142.021ZM355.97 142.021C355.97 141.289 355.915 140.671 355.805 140.166C355.702 139.661 355.498 139.262 355.19 138.969C354.89 138.669 354.458 138.519 353.895 138.519C353.332 138.519 352.896 138.669 352.589 138.969C352.289 139.262 352.084 139.661 351.974 140.166C351.872 140.671 351.82 141.289 351.82 142.021C351.82 142.767 351.872 143.397 351.974 143.909C352.084 144.414 352.289 144.816 352.589 145.116C352.896 145.416 353.332 145.566 353.895 145.566C354.458 145.566 354.89 145.416 355.19 145.116C355.498 144.816 355.702 144.414 355.805 143.909C355.915 143.397 355.97 142.767 355.97 142.021Z" fill="black"/>
</svg>
