<svg width="227" height="231" viewBox="0 0 227 231" fill="none" xmlns="http://www.w3.org/2000/svg">
<g filter="url(#filter0_d_401_8261)">
<path d="M184.306 129.706C180.626 143.441 172.956 155.776 162.265 165.151C151.575 174.526 138.344 180.521 124.247 182.377C110.149 184.233 95.8177 181.867 83.0649 175.578C70.312 169.289 59.7105 159.36 52.6009 147.045C45.4913 134.731 42.1929 120.585 43.1229 106.397C44.0529 92.2078 49.1695 78.6135 57.8256 67.3326C66.4817 56.0518 78.2885 47.5911 91.7531 43.0205C105.218 38.4498 119.735 37.9746 133.47 41.6548L124.166 76.3767C117.299 74.5366 110.04 74.7743 103.308 77.0596C96.5756 79.3449 90.6721 83.5752 86.3441 89.2156C82.016 94.8561 79.4577 101.653 78.9927 108.748C78.5278 115.842 80.1769 122.915 83.7317 129.072C87.2865 135.229 92.5873 140.194 98.9637 143.338C105.34 146.483 112.506 147.666 119.555 146.738C126.603 145.81 133.219 142.813 138.564 138.125C143.909 133.437 147.744 127.27 149.585 120.402L184.306 129.706Z" fill="#48CFCB"/>
</g>
<path d="M129.623 40.7366C140.415 43.0006 150.543 47.717 159.221 54.521C167.899 61.3251 174.896 70.0343 179.67 79.9749C184.444 89.9156 186.867 100.821 186.752 111.848C186.637 122.875 183.987 133.728 179.007 143.567L146.935 127.333C149.425 122.413 150.75 116.987 150.807 111.473C150.865 105.96 149.653 100.507 147.266 95.5368C144.879 90.5665 141.381 86.2119 137.042 82.8099C132.703 79.4078 127.639 77.0496 122.243 75.9176L129.623 40.7366Z" fill="#35194A"/>
<g filter="url(#filter1_b_401_8261)">
<rect x="32.9373" y="137.292" width="69.1266" height="36.3755" rx="8.91703" fill="white" fill-opacity="0.73"/>
<path d="M53.4218 152.07V149.589H57.7444V160.98H54.9667V152.07H53.4218ZM59.4761 158.843C59.8298 158.562 59.9911 158.432 59.9599 158.452C60.9794 157.61 61.7804 156.918 62.363 156.377C62.956 155.836 63.4553 155.269 63.8611 154.676C64.2668 154.083 64.4697 153.506 64.4697 152.944C64.4697 152.517 64.3708 152.185 64.1732 151.945C63.9755 151.706 63.679 151.586 63.2837 151.586C62.8884 151.586 62.5763 151.737 62.3474 152.039C62.1289 152.33 62.0197 152.746 62.0197 153.287H59.4449C59.4657 152.403 59.653 151.664 60.0067 151.071C60.3708 150.478 60.8441 150.041 61.4267 149.761C62.0197 149.48 62.6751 149.339 63.3929 149.339C64.6309 149.339 65.562 149.657 66.1862 150.291C66.8208 150.926 67.1381 151.753 67.1381 152.772C67.1381 153.885 66.7584 154.921 65.9989 155.878C65.2395 156.824 64.272 157.75 63.0964 158.655H67.3097V160.824H59.4761V158.843ZM68.2661 152.46C68.2661 151.618 68.5054 150.967 68.984 150.51C69.4729 150.052 70.1023 149.823 70.8721 149.823C71.642 149.823 72.2662 150.052 72.7447 150.51C73.2233 150.967 73.4625 151.618 73.4625 152.46C73.4625 153.303 73.2233 153.953 72.7447 154.411C72.2662 154.869 71.642 155.097 70.8721 155.097C70.1023 155.097 69.4729 154.869 68.984 154.411C68.5054 153.953 68.2661 153.303 68.2661 152.46ZM78.8618 149.995L72.8539 160.98H70.2792L76.287 149.995H78.8618ZM70.8565 151.384C70.3572 151.384 70.1075 151.742 70.1075 152.46C70.1075 153.168 70.3572 153.521 70.8565 153.521C71.0958 153.521 71.2831 153.433 71.4183 153.256C71.5535 153.079 71.6212 152.814 71.6212 152.46C71.6212 151.742 71.3663 151.384 70.8565 151.384ZM75.694 158.515C75.694 157.672 75.9333 157.022 76.4118 156.564C76.8904 156.107 77.5146 155.878 78.2844 155.878C79.0543 155.878 79.6785 156.107 80.157 156.564C80.6355 157.022 80.8748 157.672 80.8748 158.515C80.8748 159.358 80.6355 160.008 80.157 160.466C79.6785 160.923 79.0543 161.152 78.2844 161.152C77.5146 161.152 76.8904 160.923 76.4118 160.466C75.9333 160.008 75.694 159.358 75.694 158.515ZM78.2688 157.438C78.0295 157.438 77.8423 157.527 77.707 157.703C77.5822 157.88 77.5198 158.151 77.5198 158.515C77.5198 159.222 77.7695 159.576 78.2688 159.576C78.5081 159.576 78.6953 159.488 78.8306 159.311C78.9658 159.134 79.0335 158.869 79.0335 158.515C79.0335 158.161 78.9658 157.896 78.8306 157.719C78.6953 157.532 78.5081 157.438 78.2688 157.438Z" fill="#48CFCB"/>
</g>
<g filter="url(#filter2_b_401_8261)">
<rect x="143.286" y="62.6123" width="64.1266" height="36.3755" rx="8.91703" fill="white" fill-opacity="0.81"/>
<path d="M172.072 77.2339H167.204V79.3874C167.412 79.1585 167.703 78.9712 168.077 78.8256C168.452 78.6799 168.858 78.6071 169.295 78.6071C170.075 78.6071 170.72 78.784 171.23 79.1377C171.75 79.4914 172.129 79.9491 172.369 80.5109C172.608 81.0727 172.728 81.6813 172.728 82.3367C172.728 83.5538 172.384 84.5213 171.698 85.2392C171.011 85.9466 170.044 86.3003 168.795 86.3003C167.963 86.3003 167.24 86.1598 166.626 85.879C166.012 85.5877 165.539 85.1871 165.206 84.6774C164.873 84.1676 164.691 83.5799 164.66 82.914H167.266C167.328 83.2365 167.479 83.507 167.718 83.7255C167.958 83.9336 168.285 84.0376 168.702 84.0376C169.191 84.0376 169.555 83.8815 169.794 83.5695C170.033 83.2574 170.153 82.8412 170.153 82.3211C170.153 81.8113 170.028 81.4212 169.778 81.1507C169.529 80.8802 169.165 80.745 168.686 80.745C168.332 80.745 168.041 80.8334 167.812 81.0103C167.583 81.1767 167.432 81.4004 167.36 81.6813H164.785V74.8932H172.072V77.2339ZM173.982 77.7801C173.982 76.9374 174.221 76.2872 174.7 75.8295C175.189 75.3717 175.818 75.1429 176.588 75.1429C177.358 75.1429 177.982 75.3717 178.461 75.8295C178.939 76.2872 179.178 76.9374 179.178 77.7801C179.178 78.6227 178.939 79.2729 178.461 79.7307C177.982 80.1884 177.358 80.4173 176.588 80.4173C175.818 80.4173 175.189 80.1884 174.7 79.7307C174.221 79.2729 173.982 78.6227 173.982 77.7801ZM184.578 75.3145L178.57 86.3003H175.995L182.003 75.3145H184.578ZM176.572 76.7033C176.073 76.7033 175.823 77.0622 175.823 77.7801C175.823 78.4875 176.073 78.8412 176.572 78.8412C176.812 78.8412 176.999 78.7528 177.134 78.5759C177.27 78.3991 177.337 78.1338 177.337 77.7801C177.337 77.0622 177.082 76.7033 176.572 76.7033ZM181.41 83.8347C181.41 82.9921 181.649 82.3419 182.128 81.8841C182.606 81.4264 183.231 81.1975 184 81.1975C184.77 81.1975 185.394 81.4264 185.873 81.8841C186.352 82.3419 186.591 82.9921 186.591 83.8347C186.591 84.6774 186.352 85.3276 185.873 85.7853C185.394 86.2431 184.77 86.4719 184 86.4719C183.231 86.4719 182.606 86.2431 182.128 85.7853C181.649 85.3276 181.41 84.6774 181.41 83.8347ZM183.985 82.758C183.745 82.758 183.558 82.8464 183.423 83.0233C183.298 83.2001 183.236 83.4706 183.236 83.8347C183.236 84.5422 183.485 84.8959 183.985 84.8959C184.224 84.8959 184.411 84.8074 184.547 84.6306C184.682 84.4537 184.749 84.1884 184.749 83.8347C184.749 83.481 184.682 83.2157 184.547 83.0389C184.411 82.8516 184.224 82.758 183.985 82.758Z" fill="#35194A"/>
</g>
<defs>
<filter id="filter0_d_401_8261" x="0.278702" y="0.973302" width="226.718" height="229.168" filterUnits="userSpaceOnUse" color-interpolation-filters="sRGB">
<feFlood flood-opacity="0" result="BackgroundImageFix"/>
<feColorMatrix in="SourceAlpha" type="matrix" values="0 0 0 0 0 0 0 0 0 0 0 0 0 0 0 0 0 0 127 0" result="hardAlpha"/>
<feOffset dy="4.45852"/>
<feGaussianBlur stdDeviation="21.3451"/>
<feComposite in2="hardAlpha" operator="out"/>
<feColorMatrix type="matrix" values="0 0 0 0 0.282353 0 0 0 0 0.811765 0 0 0 0 0.796078 0 0 0 1 0"/>
<feBlend mode="normal" in2="BackgroundImageFix" result="effect1_dropShadow_401_8261"/>
<feBlend mode="normal" in="SourceGraphic" in2="effect1_dropShadow_401_8261" result="shape"/>
</filter>
<filter id="filter1_b_401_8261" x="29.5934" y="133.949" width="75.8145" height="43.0633" filterUnits="userSpaceOnUse" color-interpolation-filters="sRGB">
<feFlood flood-opacity="0" result="BackgroundImageFix"/>
<feGaussianBlur in="BackgroundImageFix" stdDeviation="1.67194"/>
<feComposite in2="SourceAlpha" operator="in" result="effect1_backgroundBlur_401_8261"/>
<feBlend mode="normal" in="SourceGraphic" in2="effect1_backgroundBlur_401_8261" result="shape"/>
</filter>
<filter id="filter2_b_401_8261" x="139.942" y="59.2684" width="70.8145" height="43.0633" filterUnits="userSpaceOnUse" color-interpolation-filters="sRGB">
<feFlood flood-opacity="0" result="BackgroundImageFix"/>
<feGaussianBlur in="BackgroundImageFix" stdDeviation="1.67194"/>
<feComposite in2="SourceAlpha" operator="in" result="effect1_backgroundBlur_401_8261"/>
<feBlend mode="normal" in="SourceGraphic" in2="effect1_backgroundBlur_401_8261" result="shape"/>
</filter>
</defs>
</svg>
