<svg width="954" height="975" viewBox="0 0 954 975" fill="none" xmlns="http://www.w3.org/2000/svg">
<path d="M483.071 96.0687C487.875 95.9764 487.875 95.9764 492.775 95.8823C515.181 95.9065 539.751 97.3765 557.47 112.627C563.924 120.253 564.998 125.348 565.462 135.32C556.912 157.099 546.182 163.006 525.628 172.496C506.628 179.442 487.505 182.388 467.495 184.946C368.447 197.765 277.814 231.052 214.013 312.034C166.894 377.044 144.218 451.065 144.618 531.306C144.635 535.395 144.652 539.484 144.669 543.697C145.788 627.739 167.945 701.612 219.596 769.106C225.491 777.224 225.491 777.224 228.892 784.801C233.44 792.905 237.955 794.265 246.306 798.043C250.382 801.543 254.351 805.169 258.231 808.886C330.887 873.393 425.551 895.155 520.118 892.363C578.715 888.859 623.068 863.726 662.786 821.735C695.278 783.886 721.073 734.623 735.447 687.011C736.118 684.833 736.788 682.655 737.478 680.412C758.123 610.275 758.946 523.904 735.447 454.537C733.945 449.586 733.945 449.586 732.412 444.535C724.374 421.062 710.205 403.495 693.818 385.142C691.967 383.045 690.116 380.947 688.208 378.786C673.52 363.181 656.607 350.624 639.238 338.172C634.121 334.405 629.254 330.301 624.436 326.157C624.436 322.722 624.436 319.286 624.436 315.747C661.466 312.808 693.664 325.142 728.387 336.444C763.999 347.754 790.158 348.397 825.644 336.566C836.98 334.854 845.536 333.901 855.646 340.036C882.771 366.477 886.935 418.467 888.087 454.537C888.266 458.791 888.445 463.044 888.629 467.427C891.999 583.618 855.541 690.976 778.039 777.563C740.826 816.537 696.964 843.384 648.647 866.355C640.938 870.029 633.276 873.79 625.615 877.562C522.011 927.887 421.116 941.894 310.672 904.001C267.703 888.339 231.911 866.72 197.738 836.21C194.823 833.75 191.907 831.29 188.903 828.755C103.739 755.479 53.5643 645.852 45.0983 534.342C40.0409 428.21 67.288 328.375 138.665 247.585C210.456 168.648 296.041 126.439 398.946 104.092C402.514 103.305 406.083 102.518 409.759 101.707C434.114 97.1515 458.36 96.3558 483.071 96.0687Z" fill="#48CFCB"/>
<path d="M547.615 253.78C556.952 261.144 561.666 266.192 565.462 277.58C567.501 296.71 567.902 314.435 556.499 330.628C543.335 346.538 528.223 358.044 507.409 360.448C501.613 360.803 495.812 361.081 490.009 361.288C441.398 364.654 397.77 377.327 363.17 413.551C332.87 449.808 326.894 488.404 329.564 534.342C334.84 568.43 353.091 600.138 380.516 621.085C411.109 640.477 447.11 646.918 482.407 639.749C518.104 630.287 547.794 614.001 567.63 582.051C579.919 559.741 581.873 538.772 579.338 513.523C575.813 502.473 570.911 492.513 565.462 482.295C555.329 462.388 551.646 445.412 555.054 423.31C562.447 410.634 569.411 404.524 582.807 399.021C604.594 396.111 623.154 397.943 642.635 408.17C658.144 420.227 665.266 434.902 671.919 453.019C673.364 456.888 674.808 460.757 676.296 464.743C692.628 512.29 683.575 562.403 662.855 607.208C650.726 631.308 636.633 653.993 617.498 673.132C615.208 673.132 612.919 673.132 610.56 673.132C610.56 675.422 610.56 677.712 610.56 680.071C589.736 699.44 566.458 713.594 540.528 724.961C538.307 725.939 536.087 726.917 533.799 727.925C506.513 739.293 479.809 743.822 450.331 743.611C447.471 743.594 444.611 743.577 441.664 743.559C378.561 742.366 325.004 720.717 278.394 678.336C274.531 674.043 274.531 674.043 270.589 669.662C268.756 667.842 266.922 666.021 265.033 664.146C222.415 619.736 206.609 558.39 207.441 498.302C210.782 438.851 231.464 388.579 270.589 343.505C272.051 341.511 273.514 339.516 275.02 337.46C317.447 281.483 393.636 255.102 460.115 244.306C488.216 240.882 522.51 238.344 547.615 253.78Z" fill="#48CFCB"/>
<path d="M728.225 47.8988C760.912 46.1123 794.656 56.4848 819.722 77.6492C821.676 79.5054 823.63 81.3616 825.644 83.274C828.521 86.0046 828.521 86.0046 831.457 88.7904C853.329 111.861 861.117 136.801 862.069 168.283C861.021 202.994 849.964 231.655 825.644 256.762C788.991 287.863 754.531 295.188 707.593 292.208C682.865 289.499 662.468 277.843 645.251 260.231C637.469 250.249 630.755 239.966 624.436 229.004C623.242 226.946 622.048 224.889 620.818 222.769C608.819 197.301 610.176 162.319 616.428 135.402C628.918 101.634 651.269 76.0418 682.91 58.9858C697.875 52.1128 712.007 49.5507 728.225 47.8988Z" fill="#48CFCB"/>
<path d="M700.756 489.235C716.297 504.778 715.626 527.537 715.954 548.328C715.811 620.652 698.138 685.18 646.691 737.977C641.629 743.007 636.504 747.974 631.375 752.936C629.103 755.315 626.831 757.695 624.491 760.147C610.325 774.064 594.05 782.985 576.52 791.971C573.191 793.687 573.191 793.687 569.795 795.438C537.291 811.291 505.424 817.285 469.411 816.909C465.776 816.878 462.14 816.847 458.394 816.815C387.784 815.253 326.626 789.83 277.527 739.057C290.088 739.057 295.581 742.641 306.581 748.599C372.552 782.43 446.298 785.945 516.722 764.782C583.274 742.986 632.294 699.397 666.066 638.434C672.797 624.819 678.409 611.132 683.411 596.797C684.435 593.948 685.459 591.099 686.514 588.163C696.582 556.269 698.043 522.397 700.756 489.235Z" fill="#48CFCB"/>
</svg>
