<svg width="20" height="20" viewBox="0 0 20 20" fill="none" xmlns="http://www.w3.org/2000/svg">
<path d="M13.4301 13.43L17.5001 17.5M8.90672 15.3142C9.74811 15.3142 10.5813 15.1484 11.3586 14.8265C12.1359 14.5045 12.8423 14.0325 13.4372 13.4376C14.0322 12.8426 14.5041 12.1363 14.8261 11.359C15.1481 10.5816 15.3138 9.74847 15.3138 8.90708C15.3138 8.06569 15.1481 7.23254 14.8261 6.4552C14.5041 5.67786 14.0322 4.97154 13.4372 4.37659C12.8423 3.78164 12.1359 3.3097 11.3586 2.98771C10.5813 2.66572 9.74811 2.5 8.90672 2.5C7.20745 2.5 5.57779 3.17503 4.37622 4.37659C3.17466 5.57815 2.49963 7.20782 2.49963 8.90708C2.49963 10.6063 3.17466 12.236 4.37622 13.4376C5.57779 14.6391 7.20745 15.3142 8.90672 15.3142Z" stroke="#48CFCB" stroke-width="1.5" stroke-miterlimit="10" stroke-linecap="round" stroke-linejoin="round"/>
</svg>
