<svg width="24" height="25" viewBox="0 0 24 25" fill="none" xmlns="http://www.w3.org/2000/svg">
<path d="M20.981 14.2V17.487C20.981 18.2819 20.6652 19.0442 20.1032 19.6062C19.5412 20.1682 18.7789 20.484 17.984 20.484H5.998C5.60426 20.4841 5.21435 20.4067 4.85056 20.2561C4.48677 20.1054 4.15622 19.8846 3.8778 19.6062C3.59938 19.3278 3.37856 18.9972 3.22794 18.6334C3.07732 18.2696 2.99987 17.8797 3 17.486V7.496C3.00027 6.70132 3.31614 5.93928 3.87815 5.37745C4.44017 4.81562 5.20232 4.5 5.997 4.5H10.992M16.242 6.559L18.979 9.316" stroke="black" stroke-opacity="0.72" stroke-width="1.5" stroke-linecap="round" stroke-linejoin="round"/>
<path d="M11.99 15.858L10.501 16.148C10.3402 16.1887 10.1718 16.1887 10.011 16.148C9.85426 16.0966 9.71084 16.0113 9.59097 15.898C9.47594 15.7836 9.39048 15.6428 9.34197 15.488C9.29731 15.3281 9.29731 15.1589 9.34197 14.999L9.62197 13.491C9.70697 13.111 9.90197 12.763 10.182 12.491L17.544 5.129C17.7264 4.93765 17.9477 4.78761 18.193 4.689C18.44 4.573 18.709 4.509 18.983 4.5C19.247 4.502 19.508 4.556 19.751 4.66C19.998 4.76 20.222 4.91 20.411 5.1C20.599 5.28518 20.7486 5.50575 20.851 5.749C21.0499 6.24582 21.0499 6.80018 20.851 7.297C20.7487 7.54063 20.5992 7.76156 20.411 7.947L12.988 15.299C12.718 15.579 12.37 15.773 11.989 15.859L11.99 15.858Z" stroke="black" stroke-opacity="0.72" stroke-width="1.5" stroke-linecap="round" stroke-linejoin="round"/>
</svg>
