<svg width="24" height="25" viewBox="0 0 24 25" fill="none" xmlns="http://www.w3.org/2000/svg">
<path d="M20.015 16.614L12.976 21.192C12.6666 21.393 12.3055 21.5 11.9365 21.5C11.5675 21.5 11.2064 21.393 10.897 21.192L3.85802 16.614C3.59307 16.4394 3.37586 16.2014 3.22604 15.9217C3.07623 15.642 2.99854 15.3293 3.00002 15.012V5.407C3.00002 4.90123 3.20094 4.41618 3.55857 4.05855C3.9162 3.70092 4.40125 3.5 4.90702 3.5H18.966C19.4717 3.50026 19.9566 3.70127 20.3142 4.05884C20.6718 4.41641 20.8728 4.90131 20.873 5.407V15.012C20.8745 15.3293 20.7968 15.642 20.647 15.9217C20.4972 16.2014 20.28 16.4394 20.015 16.614Z" stroke="black" stroke-opacity="0.75" stroke-width="1.5" stroke-linecap="round" stroke-linejoin="round"/>
<path d="M11.939 5.82999L13.331 9.42599L17.185 9.63599L14.19 12.077L15.182 15.807L11.939 13.707L8.69599 15.807L9.69799 12.077L6.69299 9.63499L10.556 9.42499L11.939 5.82999Z" stroke="black" stroke-opacity="0.75" stroke-width="1.5" stroke-linecap="round" stroke-linejoin="round"/>
</svg>
