<svg width="245" height="367" viewBox="0 0 245 367" fill="none" xmlns="http://www.w3.org/2000/svg">
<path d="M1.34188e-05 147.153L1.78008 151.962L3.61934 156.771L5.54023 161.575L7.54236 166.376L9.62534 171.171L11.7886 175.96L14.0315 180.739L16.3537 185.509L18.7546 190.267L21.2335 195.013L23.7899 199.744L26.423 204.46L29.1323 209.159L31.9169 213.84L34.7762 218.5L37.7095 223.14L40.7159 227.757L43.7948 232.35L46.9452 236.919L50.1664 241.461L53.4574 245.975L56.8174 250.46L60.2454 254.914L63.7407 259.337L67.3023 263.727L70.9289 268.082L74.6198 272.402L78.3739 276.685L82.1902 280.93L86.0677 285.135L90.005 289.301L94.0015 293.425L98.0558 297.506L102.167 301.543L106.333 305.534L110.554 309.479L114.829 313.378L119.154 317.227L123.531 321.027L127.957 324.776L132.432 328.474L136.954 332.119L141.521 335.71L146.132 339.247L150.787 342.727L155.482 346.151L160.22 349.516L164.995 352.824L169.808 356.072L174.658 359.26L179.542 362.387L186.995 367M98.0558 2.8462e-05L94.3025 0.737157L88.8846 1.79745L83.5091 2.9225L78.1777 4.11198L72.8916 5.3654L67.6524 6.68219L62.4619 8.06195L57.3211 9.50409L52.232 11.0081L47.1958 12.5734L42.2139 14.1993L37.2878 15.8852L32.4189 17.6307L27.6087 19.4348L22.8583 21.2971L18.1695 23.2168L13.5433 25.1933L8.98122 27.2257L4.48452 29.3133L2.16751e-05 31.6625M0 334.859L4.4845 337L8.98119 339.088L13.5433 341.12L18.1695 343.097L22.8583 345.017L27.6085 346.879L32.4188 348.683L37.2878 350.429L42.2139 352.115L47.1957 353.74L52.232 355.306L57.3211 356.81L62.4619 358.252L67.6524 359.632L72.8915 360.948L78.1776 362.202L83.5091 363.392L88.8846 364.517L94.3025 365.577L100.851 367M185.396 1.47346e-06L179.542 3.9273L174.658 7.05377L169.808 10.2415L164.995 13.4897L160.22 16.7972L155.482 20.1634L150.787 23.5872L146.132 27.0678L141.521 30.6041L136.954 34.1952L132.432 37.84L127.957 41.5376L123.531 45.2868L119.154 49.0868L114.829 52.9363L110.554 56.8343L106.333 60.7797L102.167 64.7715L98.0558 68.8085L94.0015 72.889L90.005 77.0131L86.0677 81.178L82.1902 85.3837L78.3739 89.629L74.6198 93.9118L70.9289 98.2321L67.3023 102.587L63.7407 106.977L60.2454 111.4L56.8174 115.854L53.4574 120.339L50.1664 124.853L46.9452 129.395L43.7948 133.963L40.7159 138.557L37.7095 143.174L34.7762 147.814L31.9169 152.474L29.1323 157.155L26.423 161.854L23.7899 166.57L21.2335 171.301L18.7546 176.047L16.3537 180.805L14.0315 185.575L11.7886 190.354L9.62534 195.143L7.54236 199.938L5.54023 204.738L3.61934 209.544L1.78008 214.351L8.27116e-06 219.161M64.1907 0.000105751L62.9322 4.38675L61.3509 9.07515L59.8381 13.809L58.3943 18.5872L57.0199 23.4082L55.7157 28.2706L54.4821 33.1732L53.3196 38.1143L52.2286 43.0928L51.2096 48.1069L50.263 53.1555L49.3893 58.237L48.5886 63.3499L47.8616 68.493L47.2085 73.6645L46.6294 78.8628L46.1247 84.0865L45.6948 89.335L45.3397 94.6056L45.0596 99.897L44.855 105.208L44.7257 110.537L44.6719 115.883L44.6937 121.243L44.7914 126.618L44.9647 132.003L45.2137 137.399L45.5386 142.804L45.9393 148.216L46.4156 153.634L46.9674 159.057L47.5949 164.482L48.2978 169.908L49.0759 175.333L49.9289 180.756L50.857 186.176L51.8595 191.591L52.9365 196.999L54.0875 202.398L55.3124 207.789L56.6106 213.168L57.982 218.534L59.4262 223.886L60.9426 229.222L62.5309 234.541L64.1907 239.841L65.9214 245.121L67.7225 250.379L69.5938 255.613L71.5345 260.824L73.5438 266.007L75.6214 271.163L77.7667 276.29L79.9789 281.386L82.2575 286.451L84.6019 291.482L87.011 296.478L89.4842 301.438L92.0211 306.359L94.6207 311.243L97.282 316.085L100.004 320.887L102.787 325.644L105.629 330.358L108.53 335.026L111.488 339.647L114.503 344.219L117.574 348.742L120.699 353.215L123.878 357.635L127.11 362.002L131.316 367M5.63656e-06 256.013L4.79952 259.498L8.78922 262.947L12.8519 266.361L16.9865 269.737L21.1917 273.075L25.4667 276.374L29.8101 279.633L34.2207 282.849L38.6972 286.024L43.2388 289.155L47.8438 292.242L52.5113 295.283L57.2397 298.278L62.0278 301.226L66.8745 304.125L71.7781 306.976L76.7374 309.776L81.751 312.526L86.8177 315.224L91.9358 317.869L97.1041 320.461L102.321 322.999L107.585 325.482L112.896 327.909L118.249 330.28L123.647 332.594L129.085 334.849L134.563 337.047L140.078 339.185L145.631 341.263L151.22 343.28L156.841 345.237L162.494 347.132L168.178 348.965L173.891 350.734L179.63 352.441L185.396 354.084L191.184 355.662L196.996 357.176L202.828 358.625L208.678 360.007L214.547 361.325L220.431 362.575L226.329 363.759L232.239 364.876L238.16 365.926L244.249 367M240.572 2.94816e-06L232.239 1.43756L226.329 2.55466L220.431 3.73873L214.547 4.98945L208.679 6.3065L202.828 7.68952L196.996 9.1381L191.184 10.6518L185.396 12.2303L179.63 13.8731L173.891 15.5796L168.178 17.3495L162.494 19.1821L156.841 21.077L151.22 23.0335L145.631 25.0511L140.078 27.1292L134.563 29.2672L129.085 31.4644L123.647 33.7201L118.249 36.0338L112.896 38.4046L107.585 40.8318L102.321 43.3148L97.1041 45.8527L91.9358 48.4447L86.8177 51.0901L81.7511 53.7881L76.7374 56.5377L71.7781 59.3382L66.8745 62.1887L62.0278 65.0883L57.2397 68.0363L52.5113 71.0312L47.844 74.0724L43.2388 77.1591L38.6972 80.2906L34.2207 83.465L29.8101 86.6816L25.4667 89.9404L21.1917 93.2387L16.9865 96.5766L12.8519 99.9532L8.78923 103.367L4.79953 106.816L1.60248e-05 110.701M130.266 0L127.11 4.31238L123.878 8.67928L120.699 13.0995L117.574 17.5717L114.503 22.0947L111.488 26.6673L108.53 31.2882L105.629 35.9559L102.787 40.6696L100.005 45.4276L97.2821 50.2286L94.6207 55.0714L92.0211 59.9545L89.4842 64.8766L87.011 69.8365L84.6019 74.8325L82.2575 79.8633L79.979 84.9277L77.7667 90.0241L75.6214 95.1508L73.5438 100.307L71.5345 105.49L69.5938 110.701L67.7226 115.935L65.9214 121.193L64.1907 126.473L62.5309 131.773L60.9426 137.092L59.4262 142.428L57.982 147.78L56.6106 153.146L55.3124 158.525L54.0875 163.916L52.9365 169.316L51.8595 174.723L50.857 180.138L49.9289 185.558L49.0759 190.981L48.2978 196.407L47.5949 201.833L46.9674 207.257L46.4156 212.679L45.9393 218.097L45.5386 223.51L45.2137 228.915L44.9647 234.311L44.7914 239.696L44.6937 245.071L44.6719 250.431L44.7257 255.777L44.8549 261.106L45.0596 266.417L45.3397 271.709L45.6948 276.979L46.1247 282.227L46.6294 287.451L47.2084 292.65L47.8616 297.821L48.5886 302.964L49.3892 308.077L50.263 313.159L51.2096 318.207L52.2286 323.221L53.3195 328.2L54.4821 333.141L55.7157 338.043L57.0199 342.906L58.3942 347.727L59.8381 352.505L61.3509 357.239L62.9322 361.928L64.5812 366.569" stroke="#E9E9E9" stroke-width="2"/>
</svg>
